<svg version="1.1" id="Layer_1" xmlns="http://www.w3.org/2000/svg" xmlns:xlink="http://www.w3.org/1999/xlink" x="0px" y="0px"
	 width="100%" viewBox="0 0 500 500" enable-background="new 0 0 500 500" xml:space="preserve">
<path fill="#000000" opacity="1.000000" stroke="none" 
	d="
M343.000000,501.000000 
	C228.666687,501.000000 114.833389,501.000000 1.000061,501.000000 
	C1.000041,334.333405 1.000041,167.666794 1.000020,1.000151 
	C167.666565,1.000100 334.333130,1.000100 500.999756,1.000050 
	C500.999847,167.666519 500.999847,334.333038 500.999939,500.999786 
	C448.500000,501.000000 396.000000,501.000000 343.000000,501.000000 
M174.393646,199.039261 
	C174.292603,199.355194 174.191544,199.671112 173.791779,200.629135 
	C173.177902,201.381775 172.460983,202.072525 171.966141,202.896637 
	C167.252777,210.746262 162.494949,218.571060 157.914948,226.498322 
	C153.817413,233.590530 149.927811,240.802887 145.987228,247.990250 
	C145.987228,247.990250 145.964371,247.948059 145.458786,248.092926 
	C145.624802,248.427612 145.790802,248.762299 145.683472,249.741898 
	C144.369965,251.072845 142.740463,252.211884 141.796005,253.766983 
	C136.923691,261.789398 132.174667,269.888336 127.485786,278.020050 
	C123.872734,284.286011 120.412186,290.639862 116.233482,297.234131 
	C115.611443,298.536133 115.073868,299.887054 114.353012,301.131836 
	C110.907249,307.082001 107.411789,313.003357 103.958054,318.977722 
	C103.958054,318.977722 103.957939,318.930481 103.433090,319.050049 
	C103.246742,319.345367 103.060402,319.640656 102.954994,319.979004 
	C102.954994,319.979004 102.913727,319.897156 102.256325,320.195679 
	C101.049011,322.422943 99.844627,324.651764 98.633759,326.877106 
	C96.082382,331.565979 93.527596,336.252960 90.300179,341.164246 
	C85.823120,348.620636 81.297569,356.048553 76.890816,363.546265 
	C74.881981,366.964081 73.107758,370.519775 71.068024,374.467957 
	C71.068024,374.467957 70.976921,374.941315 70.310539,375.171906 
	C68.513763,378.436096 66.716988,381.700317 64.306335,385.188416 
	C63.846294,386.117279 63.386250,387.046143 62.443573,388.069061 
	C62.133076,388.251099 61.969437,388.521851 61.294258,389.184906 
	C54.787636,400.589417 48.281017,411.993927 41.497547,423.883698 
	C43.022762,423.883698 43.940262,424.158844 44.241573,423.844086 
	C56.911331,410.609985 69.526001,397.323120 82.757309,383.788818 
	C87.062927,379.461487 91.442101,375.203888 95.641830,370.776123 
	C97.616898,368.693817 99.246849,366.284149 101.001129,363.998505 
	C101.001129,363.998505 101.023064,364.031494 101.635208,363.873322 
	C102.458778,362.930267 103.282341,361.987213 104.722458,360.794983 
	C113.428772,351.864502 122.135086,342.933990 131.112869,333.374054 
	C131.763962,332.605408 132.415070,331.836731 133.775421,330.959595 
	C137.808395,327.159637 141.929291,323.447205 145.837204,319.522736 
	C147.792068,317.559631 149.358170,315.209442 151.710968,312.774841 
	C153.672028,310.802673 155.711624,308.901611 157.576019,306.841949 
	C160.476761,303.637421 163.258438,300.325073 166.041214,297.030731 
	C166.041214,297.030731 166.066467,297.081726 166.717010,296.829895 
	C169.815308,293.909760 172.998154,291.073334 175.991394,288.049194 
	C180.113754,283.884247 184.140900,279.621613 188.103394,275.304077 
	C189.259293,274.044617 190.055878,272.455414 191.692123,270.951447 
	C193.068970,269.641968 194.445816,268.332489 195.984634,266.557678 
	C195.984634,266.557678 196.075394,266.073456 196.779190,265.995697 
	C203.052338,259.578979 209.325500,253.162216 216.097244,246.292633 
	C219.511139,242.903641 222.938293,239.527878 226.335739,236.122467 
	C230.921936,231.525558 235.485291,226.905838 240.328079,222.894333 
	C245.278778,231.610748 250.229462,240.327164 255.043076,249.753845 
	C251.083267,256.326447 247.041656,262.851501 243.184494,269.483826 
	C238.446564,277.630554 233.862686,285.866882 229.017105,294.761200 
	C223.721329,303.461792 218.425568,312.162354 212.923111,321.563629 
	C210.951096,324.709961 208.924591,327.823639 207.018280,331.009308 
	C202.906967,337.879913 198.811859,344.761078 194.794022,351.686584 
	C189.715118,360.441040 184.719696,369.243958 179.322556,378.114807 
	C179.110611,378.263916 178.978806,378.465393 178.775955,378.746887 
	C178.775955,378.746887 178.766266,378.900299 178.278702,379.118866 
	C178.209518,379.608551 178.140335,380.098236 177.834015,380.730164 
	C177.834015,380.730164 177.722183,380.983063 177.285416,381.148224 
	C177.053619,381.373383 176.884338,381.638489 176.881607,381.935883 
	C176.881607,381.935883 176.860184,381.833771 176.227783,382.175476 
	C173.786209,388.460205 167.913300,393.343170 168.049576,401.973724 
	C173.223694,399.919708 177.581512,398.189728 182.526276,396.049194 
	C182.758804,395.994934 182.991318,395.940674 183.451767,395.987915 
	C183.451767,395.987915 183.682922,395.894043 184.487671,395.983826 
	C199.660187,390.609772 214.832687,385.235718 230.780441,380.022156 
	C248.919189,373.363251 267.057953,366.704376 285.936127,359.993591 
	C287.750122,359.308685 289.543335,358.561279 291.381775,357.949951 
	C298.563202,355.561859 305.758911,353.216858 313.514282,351.309448 
	C314.659821,353.634644 315.703918,356.016632 316.968323,358.275269 
	C322.664673,368.450867 328.405823,378.601532 334.165466,388.741486 
	C338.699707,396.724060 343.202850,404.726227 347.879852,412.624908 
	C350.382111,416.850769 353.222656,420.876251 356.230835,425.833038 
	C385.490967,425.895935 414.751099,425.964996 444.011261,425.977325 
	C444.596130,425.977570 445.181274,425.313934 445.766449,424.225800 
	C445.218628,422.694489 444.900391,421.027069 444.086212,419.653625 
	C438.118378,409.586487 432.008118,399.603851 426.028351,389.543701 
	C420.755371,380.672546 415.638702,371.708496 410.368195,362.835876 
	C405.809143,355.161041 400.990845,347.637451 396.547119,339.897766 
	C392.571472,332.973297 388.950684,325.845062 385.124542,318.080536 
	C381.840271,312.922760 378.504608,307.796875 375.283356,302.600037 
	C369.941467,293.981995 364.631866,285.343201 359.399811,276.658264 
	C357.898712,274.166473 356.385651,272.612183 353.117310,273.796631 
	C342.433716,277.668152 331.684357,281.358215 320.464630,285.148895 
	C320.148987,285.335022 319.990784,285.611328 319.471436,286.081451 
	C319.302826,286.132965 319.134247,286.184479 318.488953,286.167450 
	C318.179871,286.328278 317.997406,286.580658 317.996643,286.998505 
	C317.996643,286.998505 317.928925,286.935028 317.103851,286.970428 
	C308.518463,289.279572 299.933044,291.588684 290.160248,294.217194 
	C294.107910,287.660919 297.486847,282.256226 300.646271,276.726105 
	C302.612030,273.285339 304.245697,269.654846 306.652374,265.850372 
	C307.505035,264.589722 308.357697,263.329071 309.629242,261.924072 
	C309.900146,261.747223 310.036926,261.497040 310.664856,260.779205 
	C311.028595,259.704224 311.205963,258.514740 311.785095,257.572083 
	C317.117645,248.893097 322.431580,240.199997 327.950775,231.639847 
	C329.808777,228.758072 330.472229,226.677322 328.224060,223.329422 
	C323.392181,216.133942 319.382507,208.390182 314.941956,200.927002 
	C310.361328,193.228455 305.668732,185.596527 300.969086,177.222336 
	C296.215912,169.234650 291.494965,161.227539 286.701019,153.264389 
	C281.212311,144.147186 275.658691,135.069046 270.047607,125.239998 
	C269.727692,124.511719 269.478638,123.741585 269.077057,123.061516 
	C264.079681,114.598602 259.072632,106.141327 254.041550,97.698410 
	C251.022537,92.632065 247.957092,87.593391 244.700394,82.190369 
	C243.261658,83.381248 242.434036,83.769402 242.062317,84.418610 
	C236.637375,93.892967 231.273361,103.402214 225.295639,113.213867 
	C224.501846,114.781059 223.708054,116.348259 222.277145,118.211586 
	C216.994766,126.818611 211.576675,135.346558 206.494263,144.070099 
	C204.347763,147.754425 202.908173,151.850616 200.477798,156.053909 
	C199.752014,156.732391 198.810349,157.285843 198.333740,158.108658 
	C193.418228,166.595078 188.553406,175.111176 183.726303,183.648331 
	C181.055328,188.372192 178.482559,193.151581 175.931519,197.949326 
	C175.931519,197.949326 175.935532,197.870438 175.390717,197.987793 
	C175.198898,198.293350 175.007080,198.598907 174.901733,198.902664 
	C174.901733,198.902664 174.885696,198.817673 174.393646,199.039261 
z"/>
<path fill="#9FA0A4" opacity="1.000000" stroke="none" 
	d="
M145.946472,247.962219 
	C149.927811,240.802887 153.817413,233.590530 157.914948,226.498322 
	C162.494949,218.571060 167.252777,210.746262 171.966141,202.896637 
	C172.460983,202.072525 173.177902,201.381775 174.118866,200.146210 
	C174.669312,199.421326 174.815887,199.139465 174.885696,198.817673 
	C174.885696,198.817673 174.901733,198.902664 175.089722,198.783691 
	C175.496994,198.399948 175.716263,198.135193 175.935532,197.870438 
	C175.935532,197.870438 175.931519,197.949326 176.250458,197.903564 
	C180.363739,195.651291 183.634598,193.148071 184.277298,188.259918 
	C184.456436,186.897461 185.793045,184.932938 186.990112,184.582794 
	C194.005463,182.530777 195.487122,183.424942 198.223267,190.559464 
	C198.631500,191.623917 198.458206,193.000763 199.065430,193.879715 
	C200.112518,195.395325 201.418793,196.817474 202.874878,197.944885 
	C205.073013,199.646881 207.630768,200.891495 209.791138,202.633713 
	C214.600647,206.512314 216.268829,213.766846 224.928772,213.588684 
	C230.764893,213.468628 234.123566,222.147842 230.862091,225.923553 
	C226.542419,230.924301 222.273239,235.968689 217.763367,240.744843 
	C215.558533,239.025375 213.022064,237.935349 211.694336,236.011261 
	C208.269852,231.048615 203.060074,229.427475 197.833679,228.358063 
	C194.384216,227.652237 192.592239,225.923370 191.251968,223.160080 
	C187.034073,214.463882 178.223877,211.281677 169.601440,215.463425 
	C168.766693,215.868256 167.830734,216.656113 167.537704,217.478500 
	C166.546021,220.261780 165.822525,223.140625 164.628922,226.000977 
	C159.640259,229.785095 155.091507,233.604446 153.701828,240.140808 
	C150.924423,242.866348 148.435440,245.414291 145.946472,247.962219 
M174.492477,203.535461 
	C174.492477,203.535461 174.469711,203.483047 174.492477,203.535461 
z"/>
<path fill="#ADAFB2" opacity="1.000000" stroke="none" 
	d="
M145.966858,247.976227 
	C148.435440,245.414291 150.924423,242.866348 153.694046,240.502258 
	C154.276917,242.297043 154.045929,244.822388 154.972458,245.362671 
	C159.278229,247.873383 163.786392,250.158615 168.463165,251.863251 
	C171.029419,252.798630 173.216415,253.294617 172.996201,256.556793 
	C172.806412,259.367798 174.331299,260.272491 176.834488,261.329010 
	C180.959946,263.070221 186.571045,263.265900 187.608139,269.456451 
	C187.716522,270.103485 189.760330,270.426300 190.933868,270.929077 
	C190.961578,270.958557 191.017166,271.017365 191.017166,271.017365 
	C190.055878,272.455414 189.259293,274.044617 188.103394,275.304077 
	C184.140900,279.621613 180.113754,283.884247 175.991394,288.049194 
	C172.998154,291.073334 169.815308,293.909760 166.387695,296.600647 
	C166.705399,294.914246 167.352402,293.457123 168.304199,291.823303 
	C170.093796,289.201782 171.578583,286.756958 173.073898,284.294769 
	C170.542801,282.908173 168.198593,282.175690 166.625519,280.648773 
	C163.216431,277.339722 159.282806,276.242889 154.672745,275.548950 
	C144.299072,273.987488 144.133682,273.457733 142.663422,263.385681 
	C142.634415,263.186951 142.179779,263.050323 142.426682,263.210022 
	C140.700012,264.720734 138.913193,265.874054 137.673431,267.456055 
	C135.258163,270.537964 131.488663,273.134399 132.649017,278.054871 
	C130.515213,280.106659 128.641220,282.024811 126.965660,284.102966 
	C123.548462,288.341217 120.238167,292.665710 116.883835,296.954651 
	C120.412186,290.639862 123.872734,284.286011 127.485786,278.020050 
	C132.174667,269.888336 136.923691,261.789398 141.796005,253.766983 
	C142.740463,252.211884 144.369965,251.072845 145.835663,249.132248 
	C145.980011,248.331070 145.972183,248.139557 145.964371,247.948059 
	C145.964371,247.948059 145.987228,247.990250 145.966858,247.976227 
z"/>
<path fill="#979CA1" opacity="1.000000" stroke="none" 
	d="
M217.982361,240.994324 
	C222.273239,235.968689 226.542419,230.924301 230.862091,225.923553 
	C234.123566,222.147842 230.764893,213.468628 224.928772,213.588684 
	C216.268829,213.766846 214.600647,206.512314 209.791138,202.633713 
	C207.630768,200.891495 205.073013,199.646881 202.874878,197.944885 
	C201.418793,196.817474 200.112518,195.395325 199.065430,193.879715 
	C198.458206,193.000763 198.631500,191.623917 198.223267,190.559464 
	C195.487122,183.424942 194.005463,182.530777 186.990112,184.582794 
	C185.793045,184.932938 184.456436,186.897461 184.277298,188.259918 
	C183.634598,193.148071 180.363739,195.651291 176.217468,197.881866 
	C178.482559,193.151581 181.055328,188.372192 183.726303,183.648331 
	C188.553406,175.111176 193.418228,166.595078 198.333740,158.108658 
	C198.810349,157.285843 199.752014,156.732391 201.035004,156.173309 
	C205.683868,163.693970 209.691330,171.143341 213.886658,178.485382 
	C220.378143,189.845825 226.957016,201.157135 233.616730,212.419556 
	C234.418793,213.775955 235.953156,214.699341 237.334473,216.050690 
	C237.734909,216.819962 237.948959,217.361954 238.188263,218.216583 
	C238.604187,218.978775 238.994873,219.428299 239.460175,220.182434 
	C239.709351,221.089996 239.883911,221.692963 240.058472,222.295929 
	C235.485291,226.905838 230.921936,231.525558 226.335739,236.122467 
	C222.938293,239.527878 219.511139,242.903641 215.684982,246.310867 
	C215.158585,246.194824 215.044449,246.060532 215.000488,245.608154 
	C216.041229,243.858154 217.011795,242.426239 217.982361,240.994324 
z"/>
<path fill="#B8B9BC" opacity="1.000000" stroke="none" 
	d="
M116.558655,297.094391 
	C120.238167,292.665710 123.548462,288.341217 126.965660,284.102966 
	C128.641220,282.024811 130.515213,280.106659 132.704926,278.395508 
	C133.789261,280.537872 135.798630,282.345734 133.019165,284.281158 
	C132.434402,284.688354 132.148209,286.114227 132.333298,286.933044 
	C133.060959,290.152252 139.710480,294.223053 143.172287,293.929840 
	C151.443146,293.229248 159.723099,292.636353 167.999390,292.000000 
	C167.352402,293.457123 166.705399,294.914246 166.062439,296.726562 
	C166.066467,297.081726 166.041214,297.030731 165.718445,297.078247 
	C160.517380,301.712494 155.616638,306.276184 150.814392,310.941223 
	C150.514679,311.232361 150.986954,312.318207 151.100082,313.034302 
	C149.358170,315.209442 147.792068,317.559631 145.837204,319.522736 
	C141.929291,323.447205 137.808395,327.159637 133.363556,330.953247 
	C132.951691,330.946899 132.837494,330.825409 132.941223,330.498108 
	C136.217422,326.097534 139.389893,322.024200 143.225266,317.099731 
	C138.806290,317.449860 135.422272,317.917511 132.036758,317.928619 
	C128.819824,317.939178 125.934265,316.989990 126.031166,312.909973 
	C126.129013,308.789734 123.975365,305.933014 120.299965,305.265167 
	C116.523819,304.578949 113.372292,306.334686 111.335892,310.112793 
	C109.620872,313.294708 107.150826,316.069641 104.744125,319.009766 
	C104.293518,318.974854 104.113770,318.954895 103.934006,318.934967 
	C107.411789,313.003357 110.907249,307.082001 114.353012,301.131836 
	C115.073868,299.887054 115.611443,298.536133 116.558655,297.094391 
z"/>
<path fill="#CECBCC" opacity="1.000000" stroke="none" 
	d="
M62.926205,387.975006 
	C63.386250,387.046143 63.846294,386.117279 64.952682,385.014923 
	C67.391663,381.541412 69.184296,378.241364 70.976929,374.941315 
	C70.976921,374.941315 71.068024,374.467957 71.504623,374.226074 
	C73.122627,372.969391 74.411354,372.054199 75.464012,370.919891 
	C77.971313,368.218048 80.855972,365.695923 82.667839,362.568054 
	C84.415283,359.551361 85.008827,355.866241 85.967697,352.911194 
	C89.681160,353.279572 92.898064,353.872498 96.110672,353.850067 
	C100.398933,353.820190 104.683853,353.312378 108.811249,353.297546 
	C106.740616,356.023438 104.828941,358.461639 102.597397,361.010437 
	C101.859375,362.091156 101.441216,363.061310 101.023064,364.031494 
	C101.023064,364.031494 101.001129,363.998505 100.669868,364.032593 
	C94.153069,370.007843 87.949821,375.931030 81.835777,381.944946 
	C81.539009,382.236877 82.025681,383.325287 82.147522,384.042816 
	C69.526001,397.323120 56.911331,410.609985 44.241573,423.844086 
	C43.940262,424.158844 43.022762,423.883698 41.497547,423.883698 
	C48.281017,411.993927 54.787636,400.589417 61.781143,389.223999 
	C62.681271,389.236450 63.094517,389.209778 63.507767,389.183105 
	C63.313911,388.780426 63.120056,388.377716 62.926205,387.975006 
z"/>
<path fill="#1A3B7F" opacity="1.000000" stroke="none" 
	d="
M385.173309,318.806763 
	C388.950684,325.845062 392.571472,332.973297 396.547119,339.897766 
	C400.990845,347.637451 405.809143,355.161041 410.368195,362.835876 
	C415.638702,371.708496 420.755371,380.672546 426.028351,389.543701 
	C432.008118,399.603851 438.118378,409.586487 444.086212,419.653625 
	C444.900391,421.027069 445.218628,422.694489 445.319489,424.626526 
	C415.218536,425.015533 385.564514,425.003845 355.910522,424.992157 
	C353.222656,420.876251 350.382111,416.850769 347.879852,412.624908 
	C343.202850,404.726227 338.699707,396.724060 334.165466,388.741486 
	C328.405823,378.601532 322.664673,368.450867 316.968323,358.275269 
	C315.703918,356.016632 314.659821,353.634644 313.313690,350.786133 
	C313.937958,349.816467 314.762848,349.370148 315.943359,349.099487 
	C317.666595,352.206146 318.863312,355.232147 320.431580,358.051544 
	C327.019257,369.894989 333.512268,381.799103 340.442200,393.441559 
	C345.843445,402.515900 351.718475,411.319000 357.684601,420.036163 
	C358.718872,421.547363 361.224426,422.776764 363.103912,422.855316 
	C370.184357,423.151154 377.286926,422.887177 384.381195,422.888794 
	C401.962463,422.892792 419.543762,422.940002 437.125000,422.922913 
	C438.322296,422.921753 439.519165,422.530945 441.396637,422.202271 
	C440.136169,420.176697 439.229340,418.857971 438.461487,417.462738 
	C433.814240,409.018890 429.380524,400.451538 424.526215,392.129120 
	C418.571503,381.920074 412.121735,371.999878 406.163086,361.792999 
	C398.658905,348.938782 391.434875,335.920990 384.073242,322.643158 
	C384.040955,321.871094 384.025391,321.429596 384.144104,320.709717 
	C384.576691,319.889801 384.875000,319.348297 385.173309,318.806763 
z"/>
<path fill="#C3C3C4" opacity="1.000000" stroke="none" 
	d="
M108.970215,353.009857 
	C104.683853,353.312378 100.398933,353.820190 96.110672,353.850067 
	C92.898064,353.872498 89.681160,353.279572 85.967697,352.911194 
	C85.008827,355.866241 84.415283,359.551361 82.667839,362.568054 
	C80.855972,365.695923 77.971313,368.218048 75.464012,370.919891 
	C74.411354,372.054199 73.122627,372.969391 71.584183,373.998566 
	C73.107758,370.519775 74.881981,366.964081 76.890816,363.546265 
	C81.297569,356.048553 85.823120,348.620636 90.849548,341.245972 
	C91.917244,341.094696 92.510033,340.955933 92.942429,340.614227 
	C97.360062,337.123138 97.403770,329.815979 103.927963,328.014648 
	C104.446281,327.871552 104.737595,325.667633 104.552162,324.515106 
	C104.296959,322.928986 103.486374,321.432220 102.913727,319.897156 
	C102.913727,319.897156 102.954994,319.979004 103.138657,319.840942 
	C103.534195,319.445435 103.746063,319.187958 103.957932,318.930481 
	C103.957939,318.930481 103.958054,318.977722 103.946030,318.956360 
	C104.113770,318.954895 104.293518,318.974854 105.007195,319.229187 
	C106.655785,320.835388 108.224075,322.039459 108.804260,323.608826 
	C110.975304,329.481415 112.690163,330.305634 118.595200,327.700745 
	C123.064697,325.729126 128.016937,327.046600 130.797852,331.213165 
	C130.071304,331.619598 129.536957,331.811005 128.664429,332.097412 
	C125.668129,336.207275 122.822395,335.296692 120.050224,332.141113 
	C115.389870,335.690704 117.321587,338.212219 121.745720,340.784485 
	C117.212227,345.122742 113.091217,349.066315 108.970215,353.009857 
z"/>
<path fill="#0280D1" opacity="1.000000" stroke="none" 
	d="
M318.965637,286.236023 
	C319.134247,286.184479 319.302826,286.132965 319.981873,286.038727 
	C320.659637,285.984314 320.826965,285.972656 321.399536,285.955048 
	C324.863586,285.261292 327.922485,284.573456 331.076599,284.243103 
	C336.809570,286.670258 337.700714,291.033966 337.056793,296.329010 
	C336.799530,298.444611 336.585693,300.842651 337.308197,302.749939 
	C339.804626,309.340393 342.684875,315.787476 345.494720,322.256226 
	C346.922302,325.542664 348.511780,328.758728 349.722229,332.151550 
	C347.951904,333.879974 346.487457,335.463440 344.820740,337.091187 
	C344.618530,337.135468 344.205261,337.161194 343.845703,337.114105 
	C343.007355,337.050262 342.528564,337.033508 341.713837,336.926453 
	C339.868286,333.959625 337.977051,331.214203 336.933350,328.177521 
	C335.103088,322.852539 333.970825,317.290527 332.215729,311.936096 
	C330.320435,306.153961 327.858490,300.556183 326.001007,294.763428 
	C324.674713,290.627136 322.825592,287.830505 317.926453,288.615051 
	C317.929138,287.830933 317.929016,287.382996 317.928925,286.935028 
	C317.928925,286.935028 317.996643,286.998505 318.169983,286.897400 
	C318.599060,286.663147 318.806488,286.476379 318.965637,286.236023 
z"/>
<path fill="#49D4D3" opacity="1.000000" stroke="none" 
	d="
M179.688278,378.025970 
	C184.719696,369.243958 189.715118,360.441040 194.794022,351.686584 
	C198.811859,344.761078 202.906967,337.879913 207.018280,331.009308 
	C208.924591,327.823639 210.951096,324.709961 213.373428,321.244293 
	C214.253204,321.097565 214.682663,321.270203 215.109253,321.692383 
	C215.159317,322.275055 215.212234,322.608185 214.999420,323.117615 
	C214.474228,323.852203 214.214752,324.410522 213.737793,325.166199 
	C213.345444,325.914490 213.170593,326.465363 212.742065,327.228516 
	C209.333008,332.619934 206.177628,337.799133 203.001770,342.983215 
	C202.981308,342.988098 202.980560,343.030182 202.720490,343.240845 
	C199.988983,348.290436 197.517548,353.129395 195.019989,357.983032 
	C194.993881,357.997742 194.974365,358.054382 194.681854,358.196533 
	C193.273636,359.879608 192.157928,361.420563 190.987640,363.263428 
	C190.900314,363.972717 190.867538,364.380066 190.532196,364.918060 
	C189.493530,366.356842 188.757477,367.664978 187.974197,369.194580 
	C187.926971,369.416046 187.889526,369.867371 187.567352,369.975708 
	C185.864960,372.697998 184.484741,375.311981 183.058304,378.273956 
	C182.997787,379.089508 182.983459,379.557098 182.762848,380.207001 
	C182.452530,380.910858 182.348495,381.432404 181.970413,382.252258 
	C179.886444,391.447052 181.304230,392.980286 189.875244,391.192200 
	C192.132477,390.721283 194.355804,390.016785 196.532883,389.245087 
	C206.037506,385.876129 215.519348,382.442932 225.314789,378.912872 
	C227.088516,377.926056 228.556931,377.059418 230.405136,376.189941 
	C231.533752,376.277069 232.282578,376.367035 232.924515,376.737915 
	C231.880157,377.966431 230.942688,378.914062 230.005219,379.861694 
	C214.832687,385.235718 199.660187,390.609772 184.052216,395.844177 
	C183.616760,395.704559 183.388824,395.643158 183.388824,395.643158 
	C183.388824,395.643158 183.223846,395.886414 183.223846,395.886414 
	C182.991318,395.940674 182.758804,395.994934 181.828918,396.168823 
	C179.512497,396.503601 177.897736,396.836243 176.272980,396.895782 
	C175.028000,396.941376 173.770416,396.642120 172.518433,396.496246 
	C172.735733,395.310211 172.833115,394.086426 173.192413,392.945068 
	C174.363510,389.225128 175.630249,385.535217 176.860199,381.833771 
	C176.860184,381.833771 176.881607,381.935883 177.029510,381.815247 
	C177.464905,381.538269 177.646484,381.301117 177.722183,380.983063 
	C177.722183,380.983063 177.834015,380.730164 178.131302,380.522400 
	C178.541153,379.843170 178.653702,379.371735 178.766266,378.900299 
	C178.766266,378.900299 178.775955,378.746887 179.017792,378.675232 
	C179.492462,378.478149 179.635345,378.285614 179.688278,378.025970 
z"/>
<path fill="#3EB0C2" opacity="1.000000" stroke="none" 
	d="
M237.148102,215.823410 
	C235.953156,214.699341 234.418793,213.775955 233.616730,212.419556 
	C226.957016,201.157135 220.378143,189.845825 213.886658,178.485382 
	C209.691330,171.143341 205.683868,163.693970 201.369736,156.026154 
	C202.908173,151.850616 204.347763,147.754425 206.494263,144.070099 
	C211.576675,135.346558 216.994766,126.818611 222.721252,118.188019 
	C223.165359,118.164459 223.416351,118.413544 223.325989,118.755539 
	C218.379410,128.045624 213.591171,137.031464 208.647324,145.930878 
	C203.949249,154.387894 204.155853,156.615463 210.965424,164.386597 
	C212.729248,168.140045 214.415268,171.549561 216.229691,175.261139 
	C217.551926,177.036789 218.745743,178.510361 219.994385,180.343353 
	C221.660355,183.809387 223.271530,186.915985 224.943710,190.363358 
	C226.580109,192.824295 228.155487,194.944458 229.750214,197.435608 
	C230.781082,199.857834 231.792603,201.909073 232.822968,204.338379 
	C234.244614,207.759201 235.647430,210.801941 237.064804,214.175034 
	C237.102280,214.944733 237.125198,215.384064 237.148102,215.823410 
z"/>
<path fill="#3EB0C2" opacity="1.000000" stroke="none" 
	d="
M301.025146,177.935455 
	C305.668732,185.596527 310.361328,193.228455 314.941956,200.927002 
	C319.382507,208.390182 323.392181,216.133942 328.224060,223.329422 
	C330.472229,226.677322 329.808777,228.758072 327.950775,231.639847 
	C322.431580,240.199997 317.117645,248.893097 311.785095,257.572083 
	C311.205963,258.514740 311.028595,259.704224 310.288208,260.658661 
	C309.585663,259.994751 309.259735,259.451385 308.966431,258.539307 
	C311.023804,254.123306 313.048615,250.076050 315.323425,245.805542 
	C317.432739,241.796814 319.292114,238.011337 321.468872,234.097137 
	C323.300507,230.874985 326.461029,227.452332 325.924408,224.768997 
	C325.206665,221.179718 321.622803,218.163574 319.160706,214.552979 
	C313.530975,204.512207 308.127075,194.749680 302.389038,185.187637 
	C301.268494,183.320312 298.851379,182.231003 297.163818,180.516083 
	C297.612091,179.520248 297.928833,178.791183 298.594238,178.062683 
	C299.636993,178.020660 300.331055,177.978058 301.025146,177.935455 
z"/>
<path fill="#3EB0C2" opacity="1.000000" stroke="none" 
	d="
M225.894806,112.903137 
	C231.273361,103.402214 236.637375,93.892967 242.062317,84.418610 
	C242.434036,83.769402 243.261658,83.381248 244.700394,82.190369 
	C247.957092,87.593391 251.022537,92.632065 254.041550,97.698410 
	C259.072632,106.141327 264.079681,114.598602 269.077057,123.061516 
	C269.478638,123.741585 269.727692,124.511719 269.846252,125.704910 
	C269.190582,126.434708 268.736267,126.699600 267.959900,126.803093 
	C265.152130,123.063263 262.666412,119.484833 260.095764,115.559616 
	C257.705719,111.120544 255.400558,107.028275 253.065491,102.569038 
	C250.728760,98.006027 248.553894,93.725456 245.976776,89.702560 
	C245.577286,89.078957 242.436493,89.115013 242.084564,89.724457 
	C237.872025,97.019302 233.947021,104.480217 229.687988,112.029541 
	C228.949738,112.489304 228.470322,112.817207 227.712769,113.146149 
	C227.072678,113.214722 226.710678,113.282272 226.235474,113.237892 
	C226.122269,113.125961 225.894806,112.903137 225.894806,112.903137 
z"/>
<path fill="#124A97" opacity="1.000000" stroke="none" 
	d="
M330.981354,283.885620 
	C327.922485,284.573456 324.863586,285.261292 321.403931,285.744385 
	C321.003143,285.539642 320.960297,285.118073 320.960297,285.118042 
	C331.684357,281.358215 342.433716,277.668152 353.117310,273.796631 
	C356.385651,272.612183 357.898712,274.166473 359.399811,276.658264 
	C364.631866,285.343201 369.941467,293.981995 375.283356,302.600037 
	C378.504608,307.796875 381.840271,312.922760 385.148926,318.443665 
	C384.875000,319.348297 384.576691,319.889801 383.809204,320.623016 
	C380.167206,315.504608 377.091125,310.133575 373.796234,304.900360 
	C369.988983,298.853363 365.988953,292.927704 362.011993,286.664917 
	C361.631073,285.909332 361.310760,285.438202 360.952515,284.686493 
	C360.615356,283.944122 360.316101,283.482300 359.947723,282.677429 
	C355.460449,276.322815 352.461700,275.531006 346.611023,278.948914 
	C343.139221,279.668671 340.064911,280.375610 336.641174,281.104095 
	C334.521606,282.045654 332.751465,282.965637 330.981354,283.885620 
z"/>
<path fill="#124A97" opacity="1.000000" stroke="none" 
	d="
M215.112122,321.442810 
	C214.682663,321.270203 214.253204,321.097565 213.476776,320.893951 
	C218.425568,312.162354 223.721329,303.461792 229.416260,294.412964 
	C230.357056,294.297852 230.898697,294.531006 231.157349,295.012451 
	C230.615875,296.159882 230.357376,297.059021 230.061859,298.354431 
	C228.129517,307.797089 228.130737,307.794891 236.287781,312.352539 
	C236.568726,312.509491 236.773239,312.803253 236.752075,313.276550 
	C229.364563,316.160828 222.238342,318.801819 215.112122,321.442810 
z"/>
<path fill="#124A97" opacity="1.000000" stroke="none" 
	d="
M240.193268,222.595123 
	C239.883911,221.692963 239.709351,221.089996 239.573685,220.074585 
	C239.714264,219.472351 239.800186,219.275696 239.935760,219.022064 
	C240.001205,218.971985 240.130173,218.869415 240.440826,218.896774 
	C241.167053,218.957352 241.582611,218.990570 242.048431,219.352783 
	C243.058395,220.464279 244.018127,221.246796 244.993011,222.399582 
	C246.209915,225.259933 247.339417,227.788086 248.627075,230.232956 
	C252.475815,237.540558 254.218414,237.879486 260.191406,232.289154 
	C263.049072,229.614594 264.693939,229.571350 264.738373,234.177948 
	C263.370941,236.949768 262.244385,239.480530 261.030457,242.280975 
	C260.903381,242.925140 260.863678,243.299606 260.558472,243.882370 
	C259.195984,245.759232 258.098999,247.427780 256.698120,249.095886 
	C255.989578,249.078156 255.584854,249.060867 255.180145,249.043579 
	C250.229462,240.327164 245.278778,231.610748 240.193268,222.595123 
z"/>
<path fill="#3091B7" opacity="1.000000" stroke="none" 
	d="
M308.933838,258.908020 
	C309.259735,259.451385 309.585663,259.994751 309.975586,260.855835 
	C310.036926,261.497040 309.900146,261.747223 309.088989,262.088806 
	C307.708649,263.538849 306.868530,264.824158 306.028381,266.109497 
	C304.245697,269.654846 302.612030,273.285339 300.646271,276.726105 
	C297.486847,282.256226 294.107910,287.660919 290.160248,294.217194 
	C299.933044,291.588684 308.518463,289.279572 317.516388,286.952728 
	C317.929016,287.382996 317.929138,287.830933 317.555237,288.613068 
	C315.421661,289.899292 313.662109,290.851349 311.502136,291.844940 
	C308.037750,292.544189 304.973755,293.201904 301.566101,293.895874 
	C299.812439,294.611908 298.402435,295.291718 296.594482,295.971436 
	C295.135590,295.992981 294.074677,296.014679 292.594330,296.013916 
	C290.774719,295.979980 289.374512,295.968506 287.989990,295.559601 
	C288.372070,293.115723 288.738495,291.069244 289.371338,288.857483 
	C290.423279,287.448181 291.208832,286.204224 292.292236,284.795746 
	C294.752472,280.455750 296.914856,276.280273 299.304138,271.850708 
	C301.685730,268.046295 303.840424,264.495911 306.193695,260.836639 
	C306.640015,260.541199 306.820770,260.303680 306.964478,259.780029 
	C306.994354,259.544861 307.022339,259.071594 307.342102,259.056213 
	C308.085846,258.996582 308.509827,258.952301 308.933838,258.908020 
z"/>
<path fill="#3091B7" opacity="1.000000" stroke="none" 
	d="
M268.281921,126.964493 
	C268.736267,126.699600 269.190582,126.434708 269.889099,126.071884 
	C275.658691,135.069046 281.212311,144.147186 286.701019,153.264389 
	C291.494965,161.227539 296.215912,169.234650 300.997131,177.578888 
	C300.331055,177.978058 299.636993,178.020660 298.485901,177.707458 
	C296.002563,174.217255 293.976257,171.082870 291.730408,167.735931 
	C290.698456,166.328918 289.886078,165.134460 289.054260,163.580704 
	C287.059082,160.122040 285.083252,157.022675 283.036987,153.576645 
	C281.327850,150.462021 279.689209,147.694077 277.936127,144.730164 
	C277.635223,144.289642 277.404266,144.098953 277.059052,143.608887 
	C274.015045,138.147247 271.040863,133.038834 268.107727,127.686096 
	C268.148804,127.441772 268.281921,126.964485 268.281921,126.964493 
z"/>
<path fill="#3091B7" opacity="1.000000" stroke="none" 
	d="
M255.111603,249.398712 
	C255.584854,249.060867 255.989578,249.078156 256.701477,249.465225 
	C256.322449,251.882568 255.636276,253.930145 254.934219,256.243713 
	C254.917389,256.687347 254.916443,256.864960 254.894104,257.226257 
	C254.872726,257.409943 254.902145,257.778564 254.582520,257.908020 
	C252.475784,260.991821 250.688660,263.946198 248.652496,267.139282 
	C247.225555,270.538300 246.047653,273.698578 244.529175,276.946472 
	C242.742554,279.621765 241.296524,282.209473 239.490692,284.832581 
	C238.098999,285.776154 236.866440,286.538208 236.076767,287.622772 
	C234.408569,289.913879 232.971939,292.373596 231.440323,294.764130 
	C230.898697,294.531006 230.357056,294.297852 229.513824,294.064636 
	C233.862686,285.866882 238.446564,277.630554 243.184494,269.483826 
	C247.041656,262.851501 251.083267,256.326447 255.111603,249.398712 
z"/>
<path fill="#3EB0C2" opacity="1.000000" stroke="none" 
	d="
M230.392822,379.941925 
	C230.942688,378.914062 231.880157,377.966431 233.230865,376.598083 
	C234.449722,375.817993 235.255325,375.458649 236.437561,375.045471 
	C240.727524,373.758148 244.688095,372.655121 248.542969,371.260040 
	C254.064606,369.261780 259.509064,367.050232 265.321167,364.817200 
	C271.127411,362.844330 276.598877,360.984070 282.336304,359.320007 
	C283.467072,359.692627 284.331879,359.869049 285.196686,360.045471 
	C267.057953,366.704376 248.919189,373.363251 230.392822,379.941925 
z"/>
<path fill="#BDBEC0" opacity="1.000000" stroke="none" 
	d="
M108.811249,353.297546 
	C113.091217,349.066315 117.212227,345.122742 121.745720,340.784485 
	C117.321587,338.212219 115.389870,335.690704 120.050224,332.141113 
	C122.822395,335.296692 125.668129,336.207275 128.721497,332.390625 
	C129.691620,333.060394 130.266510,333.531952 130.841400,334.003510 
	C122.135086,342.933990 113.428772,351.864502 104.116501,360.887756 
	C103.312782,360.953674 103.115028,360.926758 102.917267,360.899872 
	C104.828941,358.461639 106.740616,356.023438 108.811249,353.297546 
z"/>
<path fill="#3091B7" opacity="1.000000" stroke="none" 
	d="
M285.566406,360.019531 
	C284.331879,359.869049 283.467072,359.692627 282.449097,359.081177 
	C282.590637,358.211182 282.885345,357.776184 283.543091,357.271118 
	C286.278076,356.475769 288.650085,355.750458 291.357483,354.893982 
	C295.835327,352.607758 299.977753,350.452759 304.457764,348.342957 
	C307.528351,347.948334 310.261261,347.508484 313.249451,347.072388 
	C313.674744,347.067810 313.844727,347.059448 314.318481,347.145905 
	C314.818817,347.320435 315.015350,347.400208 315.329285,347.633667 
	C315.493652,348.166168 315.540680,348.545013 315.587708,348.923859 
	C314.762848,349.370148 313.937958,349.816467 313.031189,350.559326 
	C305.758911,353.216858 298.563202,355.561859 291.381775,357.949951 
	C289.543335,358.561279 287.750122,359.308685 285.566406,360.019531 
z"/>
<path fill="#CECBCC" opacity="1.000000" stroke="none" 
	d="
M356.070679,425.412598 
	C385.564514,425.003845 415.218536,425.015533 445.319397,424.993652 
	C445.181274,425.313934 444.596130,425.977570 444.011261,425.977325 
	C414.751099,425.964996 385.490967,425.895935 356.070679,425.412598 
z"/>
<path fill="#C3C3C4" opacity="1.000000" stroke="none" 
	d="
M176.543991,382.004639 
	C175.630249,385.535217 174.363510,389.225128 173.192413,392.945068 
	C172.833115,394.086426 172.735733,395.310211 172.518433,396.496246 
	C173.770416,396.642120 175.028000,396.941376 176.272980,396.895782 
	C177.897736,396.836243 179.512497,396.503601 181.535431,396.374084 
	C177.581512,398.189728 173.223694,399.919708 168.049576,401.973724 
	C167.913300,393.343170 173.786209,388.460205 176.543991,382.004639 
z"/>
<path fill="#BDBEC0" opacity="1.000000" stroke="none" 
	d="
M102.585022,320.046417 
	C103.486374,321.432220 104.296959,322.928986 104.552162,324.515106 
	C104.737595,325.667633 104.446281,327.871552 103.927963,328.014648 
	C97.403770,329.815979 97.360062,337.123138 92.942429,340.614227 
	C92.510033,340.955933 91.917244,341.094696 91.186562,341.134216 
	C93.527596,336.252960 96.082382,331.565979 98.633759,326.877106 
	C99.844627,324.651764 101.049011,322.422943 102.585022,320.046417 
z"/>
<path fill="#979CA1" opacity="1.000000" stroke="none" 
	d="
M215.435699,246.537292 
	C209.325500,253.162216 203.052338,259.578979 196.345932,265.956757 
	C195.912674,265.917816 195.749847,265.763153 195.836945,265.428497 
	C198.620911,261.736877 201.317780,258.379883 204.355804,254.961304 
	C206.335571,253.145081 207.857498,251.258560 209.647430,249.674988 
	C211.255402,248.252457 213.157791,247.162750 214.930298,245.926224 
	C215.044449,246.060532 215.158585,246.194824 215.435699,246.537292 
z"/>
<path fill="#B3B4B8" opacity="1.000000" stroke="none" 
	d="
M82.452415,383.915833 
	C82.025681,383.325287 81.539009,382.236877 81.835777,381.944946 
	C87.949821,375.931030 94.153069,370.007843 100.685898,364.044739 
	C99.246849,366.284149 97.616898,368.693817 95.641830,370.776123 
	C91.442101,375.203888 87.062927,379.461487 82.452415,383.915833 
z"/>
<path fill="#ADAFB2" opacity="1.000000" stroke="none" 
	d="
M151.405518,312.904572 
	C150.986954,312.318207 150.514679,311.232361 150.814392,310.941223 
	C155.616638,306.276184 160.517380,301.712494 165.743134,297.092102 
	C163.258438,300.325073 160.476761,303.637421 157.576019,306.841949 
	C155.711624,308.901611 153.672028,310.802673 151.405518,312.904572 
z"/>
<path fill="#C3C3C4" opacity="1.000000" stroke="none" 
	d="
M70.643738,375.056610 
	C69.184296,378.241364 67.391663,381.541412 65.259613,384.902954 
	C66.716988,381.700317 68.513763,378.436096 70.643738,375.056610 
z"/>
<path fill="#ADAFB2" opacity="1.000000" stroke="none" 
	d="
M195.822678,267.023010 
	C194.445816,268.332489 193.068970,269.641968 191.354645,270.984406 
	C191.017166,271.017365 190.961578,270.958557 190.977066,270.598206 
	C191.974548,269.169952 192.956543,268.102081 194.252869,267.023682 
	C194.985687,267.016449 195.404190,267.019745 195.822678,267.023010 
z"/>
<path fill="#3EB0C2" opacity="1.000000" stroke="none" 
	d="
M223.039810,118.039963 
	C223.708054,116.348259 224.501846,114.781059 225.595215,113.058502 
	C225.894806,112.903137 226.122269,113.125961 226.163910,113.517334 
	C226.478256,114.590317 226.750961,115.271935 226.837311,116.193405 
	C226.112442,117.038124 225.573944,117.642998 224.760895,118.242798 
	C224.129684,118.296326 223.773026,118.354935 223.416351,118.413544 
	C223.416351,118.413544 223.165359,118.164459 223.039810,118.039963 
z"/>
<path fill="#B8B9BC" opacity="1.000000" stroke="none" 
	d="
M130.977142,333.688782 
	C130.266510,333.531952 129.691620,333.060394 129.059662,332.295624 
	C129.536957,331.811005 130.071304,331.619598 131.107819,331.201752 
	C132.019150,330.925354 132.428314,330.875366 132.837494,330.825409 
	C132.837494,330.825409 132.951691,330.946899 133.008942,331.007507 
	C132.415070,331.836731 131.763962,332.605408 130.977142,333.688782 
z"/>
<path fill="#B3B4B8" opacity="1.000000" stroke="none" 
	d="
M102.597397,361.010437 
	C103.115028,360.926758 103.312782,360.953674 103.808228,361.012360 
	C103.282341,361.987213 102.458778,362.930267 101.329132,363.952393 
	C101.441216,363.061310 101.859375,362.091156 102.597397,361.010437 
z"/>
<path fill="#3EB0C2" opacity="1.000000" stroke="none" 
	d="
M306.340393,265.979919 
	C306.868530,264.824158 307.708649,263.538849 308.879578,262.160950 
	C308.357697,263.329071 307.505035,264.589722 306.340393,265.979919 
z"/>
<path fill="#C3C3C4" opacity="1.000000" stroke="none" 
	d="
M62.684891,388.022034 
	C63.120056,388.377716 63.313911,388.780426 63.507767,389.183105 
	C63.094517,389.209778 62.681271,389.236450 62.110344,389.072235 
	C61.969437,388.521851 62.133076,388.251099 62.684891,388.022034 
z"/>
<path fill="#C3C3C4" opacity="1.000000" stroke="none" 
	d="
M178.522491,379.009583 
	C178.653702,379.371735 178.541153,379.843170 178.249878,380.451263 
	C178.140335,380.098236 178.209518,379.608551 178.522491,379.009583 
z"/>
<path fill="#979CA1" opacity="1.000000" stroke="none" 
	d="
M195.903656,266.790344 
	C195.404190,267.019745 194.985687,267.016449 194.432739,266.804443 
	C194.782120,266.318207 195.265991,266.040680 195.749847,265.763153 
	C195.749847,265.763153 195.912674,265.917816 195.994034,265.995636 
	C196.075394,266.073456 195.984634,266.557678 195.903656,266.790344 
z"/>
<path fill="#046EC2" opacity="1.000000" stroke="none" 
	d="
M318.727295,286.201721 
	C318.806488,286.476379 318.599060,286.663147 318.142487,286.860474 
	C317.997406,286.580658 318.179871,286.328278 318.727295,286.201721 
z"/>
<path fill="#046EC2" opacity="1.000000" stroke="none" 
	d="
M320.712463,285.133484 
	C320.960297,285.118073 321.003143,285.539642 320.998718,285.750305 
	C320.826965,285.972656 320.659637,285.984314 320.241211,285.986938 
	C319.990784,285.611328 320.148987,285.335022 320.712463,285.133484 
z"/>
<path fill="#9FA0A4" opacity="1.000000" stroke="none" 
	d="
M145.711578,248.020493 
	C145.972183,248.139557 145.980011,248.331070 145.972321,248.809784 
	C145.790802,248.762299 145.624802,248.427612 145.711578,248.020493 
z"/>
<path fill="#C3C3C4" opacity="1.000000" stroke="none" 
	d="
M179.505417,378.070374 
	C179.635345,378.285614 179.492462,378.478149 179.093384,378.661438 
	C178.978806,378.465393 179.110611,378.263916 179.505417,378.070374 
z"/>
<path fill="#979CA1" opacity="1.000000" stroke="none" 
	d="
M175.663116,197.929108 
	C175.716263,198.135193 175.496994,198.399948 175.046494,198.784592 
	C175.007080,198.598907 175.198898,198.293350 175.663116,197.929108 
z"/>
<path fill="#C3C3C4" opacity="1.000000" stroke="none" 
	d="
M177.503799,381.065643 
	C177.646484,381.301117 177.464905,381.538269 176.977478,381.819092 
	C176.884338,381.638489 177.053619,381.373383 177.503799,381.065643 
z"/>
<path fill="#979CA1" opacity="1.000000" stroke="none" 
	d="
M174.639679,198.928467 
	C174.815887,199.139465 174.669312,199.421326 174.268219,199.825165 
	C174.191544,199.671112 174.292603,199.355194 174.639679,198.928467 
z"/>
<path fill="#C3C3C4" opacity="1.000000" stroke="none" 
	d="
M183.337799,395.937164 
	C183.223846,395.886414 183.388824,395.643158 183.388824,395.643158 
	C183.388824,395.643158 183.616760,395.704559 183.649841,395.799316 
	C183.682922,395.894043 183.451767,395.987915 183.337799,395.937164 
z"/>
<path fill="#BDBEC0" opacity="1.000000" stroke="none" 
	d="
M103.695511,318.990265 
	C103.746063,319.187958 103.534195,319.445435 103.098190,319.819458 
	C103.060402,319.640656 103.246742,319.345367 103.695511,318.990265 
z"/>
<path fill="#A4A7AB" opacity="1.000000" stroke="none" 
	d="
M215.000488,245.608154 
	C213.157791,247.162750 211.255402,248.252457 209.647430,249.674988 
	C207.857498,251.258560 206.335571,253.145081 204.318115,254.561737 
	C202.846283,253.486694 201.805801,252.212845 200.651779,252.099991 
	C193.350189,251.385971 186.232513,250.686752 184.407593,241.505096 
	C184.239517,240.659439 182.646469,240.141632 181.804733,239.373383 
	C180.863449,238.514282 180.061630,237.503555 179.132141,236.630066 
	C177.720947,235.303879 176.344635,233.912384 174.788177,232.774811 
	C171.582199,230.431641 168.266876,228.238068 164.996521,225.982941 
	C165.822525,223.140625 166.546021,220.261780 167.537704,217.478500 
	C167.830734,216.656113 168.766693,215.868256 169.601440,215.463425 
	C178.223877,211.281677 187.034073,214.463882 191.251968,223.160080 
	C192.592239,225.923370 194.384216,227.652237 197.833679,228.358063 
	C203.060074,229.427475 208.269852,231.048615 211.694336,236.011261 
	C213.022064,237.935349 215.558533,239.025375 217.763367,240.744827 
	C217.011795,242.426239 216.041229,243.858154 215.000488,245.608154 
z"/>
<path fill="#A8ABAF" opacity="1.000000" stroke="none" 
	d="
M164.628937,226.000977 
	C168.266876,228.238068 171.582199,230.431641 174.788177,232.774811 
	C176.344635,233.912384 177.720947,235.303879 179.132141,236.630066 
	C180.061630,237.503555 180.863449,238.514282 181.804733,239.373383 
	C182.646469,240.141632 184.239517,240.659439 184.407593,241.505096 
	C186.232513,250.686752 193.350189,251.385971 200.651779,252.099991 
	C201.805801,252.212845 202.846283,253.486694 203.976959,254.623322 
	C201.317780,258.379883 198.620911,261.736877 195.836945,265.428497 
	C195.265991,266.040680 194.782120,266.318207 194.118408,266.814941 
	C192.956543,268.102081 191.974548,269.169952 190.949356,270.568695 
	C189.760330,270.426300 187.716522,270.103485 187.608139,269.456451 
	C186.571045,263.265900 180.959946,263.070221 176.834488,261.329010 
	C174.331299,260.272491 172.806412,259.367798 172.996201,256.556793 
	C173.216415,253.294617 171.029419,252.798630 168.463165,251.863251 
	C163.786392,250.158615 159.278229,247.873383 154.972458,245.362671 
	C154.045929,244.822388 154.276917,242.297043 153.982483,240.324646 
	C155.091507,233.604446 159.640259,229.785095 164.628937,226.000977 
z"/>
<path fill="#979CA1" opacity="1.000000" stroke="none" 
	d="
M174.481094,203.509247 
	C174.469711,203.483047 174.492477,203.535461 174.481094,203.509247 
z"/>
<path fill="#B3B4B8" opacity="1.000000" stroke="none" 
	d="
M168.304199,291.823303 
	C159.723099,292.636353 151.443146,293.229248 143.172287,293.929840 
	C139.710480,294.223053 133.060959,290.152252 132.333298,286.933044 
	C132.148209,286.114227 132.434402,284.688354 133.019165,284.281158 
	C135.798630,282.345734 133.789261,280.537872 133.054535,278.334290 
	C131.488663,273.134399 135.258163,270.537964 137.673431,267.456055 
	C138.913193,265.874054 140.700012,264.720734 142.426682,263.210022 
	C142.179779,263.050323 142.634415,263.186951 142.663422,263.385681 
	C144.133682,273.457733 144.299072,273.987488 154.672745,275.548950 
	C159.282806,276.242889 163.216431,277.339722 166.625519,280.648773 
	C168.198593,282.175690 170.542801,282.908173 173.073898,284.294769 
	C171.578583,286.756958 170.093796,289.201782 168.304199,291.823303 
z"/>
<path fill="#124A97" opacity="1.000000" stroke="none" 
	d="
M237.334473,216.050690 
	C237.125198,215.384064 237.102280,214.944733 237.403748,214.299149 
	C238.528824,215.685074 239.329498,217.277252 240.130173,218.869415 
	C240.130173,218.869415 240.001205,218.971985 239.710602,218.894409 
	C239.000992,218.512527 238.582001,218.208237 238.163010,217.903931 
	C237.948959,217.361954 237.734909,216.819962 237.334473,216.050690 
z"/>
<path fill="#3EB0C2" opacity="1.000000" stroke="none" 
	d="
M238.188263,218.216583 
	C238.582001,218.208237 239.000992,218.512527 239.645142,218.944489 
	C239.800186,219.275696 239.714264,219.472351 239.499054,219.769958 
	C238.994873,219.428299 238.604187,218.978775 238.188263,218.216583 
z"/>
<path fill="#BDBEC0" opacity="1.000000" stroke="none" 
	d="
M132.941223,330.498108 
	C132.428314,330.875366 132.019150,330.925354 131.300018,330.986755 
	C128.016937,327.046600 123.064697,325.729126 118.595200,327.700745 
	C112.690163,330.305634 110.975304,329.481415 108.804260,323.608826 
	C108.224075,322.039459 106.655785,320.835388 105.278053,319.244141 
	C107.150826,316.069641 109.620872,313.294708 111.335892,310.112793 
	C113.372292,306.334686 116.523819,304.578949 120.299965,305.265167 
	C123.975365,305.933014 126.129013,308.789734 126.031166,312.909973 
	C125.934265,316.989990 128.819824,317.939178 132.036758,317.928619 
	C135.422272,317.917511 138.806290,317.449860 143.225266,317.099731 
	C139.389893,322.024200 136.217422,326.097534 132.941223,330.498108 
z"/>
<path fill="#0234A0" opacity="1.000000" stroke="none" 
	d="
M315.943359,349.099487 
	C315.540680,348.545013 315.493652,348.166168 315.546570,347.585144 
	C315.646454,347.382935 316.068939,347.245911 316.466980,347.256348 
	C318.164032,347.017883 319.463013,346.768982 321.069061,346.589905 
	C321.982239,346.191528 322.588348,345.723297 323.475220,345.189545 
	C324.126953,345.023468 324.497955,344.922974 325.249451,344.828735 
	C329.424866,343.250244 333.219788,341.665527 337.332581,340.036896 
	C338.074738,339.938538 338.499084,339.884064 339.279999,339.832214 
	C341.159485,338.943634 342.682373,338.052399 344.205261,337.161194 
	C344.205261,337.161194 344.618530,337.135468 345.215210,337.091003 
	C350.860748,335.348541 355.909576,333.650482 361.263763,331.908875 
	C362.074280,331.289429 362.579437,330.713501 363.287292,330.008911 
	C363.749390,329.683899 363.957825,329.443359 364.518738,329.133545 
	C366.279144,329.066589 367.636047,329.024689 369.350677,328.930298 
	C374.502289,326.909790 379.296143,324.941772 384.089996,322.973755 
	C391.434875,335.920990 398.658905,348.938782 406.163086,361.792999 
	C412.121735,371.999878 418.571503,381.920074 424.526215,392.129120 
	C429.380524,400.451538 433.814240,409.018890 438.461487,417.462738 
	C439.229340,418.857971 440.136169,420.176697 441.396637,422.202271 
	C439.519165,422.530945 438.322296,422.921753 437.125000,422.922913 
	C419.543762,422.940002 401.962463,422.892792 384.381195,422.888794 
	C377.286926,422.887177 370.184357,423.151154 363.103912,422.855316 
	C361.224426,422.776764 358.718872,421.547363 357.684601,420.036163 
	C351.718475,411.319000 345.843445,402.515900 340.442200,393.441559 
	C333.512268,381.799103 327.019257,369.894989 320.431580,358.051544 
	C318.863312,355.232147 317.666595,352.206146 315.943359,349.099487 
z"/>
<path fill="#0250AE" opacity="1.000000" stroke="none" 
	d="
M384.073242,322.643127 
	C379.296143,324.941772 374.502289,326.909790 369.416382,328.579132 
	C370.285645,327.214539 371.281952,325.585449 372.639069,325.187744 
	C376.801727,323.967896 376.316559,321.892822 374.624878,318.851715 
	C373.068085,316.053070 371.989777,312.982666 370.772888,310.002472 
	C369.906372,307.880402 369.167694,305.706390 368.357788,303.560852 
	C366.266937,298.022125 364.168182,292.486359 362.072571,286.949371 
	C365.988953,292.927704 369.988983,298.853363 373.796234,304.900360 
	C377.091125,310.133575 380.167206,315.504608 383.674927,320.901428 
	C384.025391,321.429596 384.040955,321.871094 384.073242,322.643127 
z"/>
<path fill="#018CDB" opacity="1.000000" stroke="none" 
	d="
M338.923401,339.829620 
	C338.499084,339.884064 338.074738,339.938538 337.097260,339.824554 
	C333.037476,340.774170 329.530884,341.892273 326.081909,342.630066 
	C326.555756,338.887390 328.176361,335.108948 327.182983,332.233521 
	C322.480682,318.621674 317.064392,305.256470 311.902527,291.803406 
	C313.662109,290.851349 315.421661,289.899292 317.552429,288.949219 
	C322.825592,287.830505 324.674713,290.627136 326.001007,294.763428 
	C327.858490,300.556183 330.320435,306.153961 332.215729,311.936096 
	C333.970825,317.290527 335.103088,322.852539 336.933350,328.177521 
	C337.977051,331.214203 339.868286,333.959625 341.485016,337.147339 
	C340.702545,338.248840 339.812958,339.039215 338.923401,339.829620 
z"/>
<path fill="#046EC2" opacity="1.000000" stroke="none" 
	d="
M364.115204,329.158600 
	C363.957825,329.443359 363.749390,329.683899 362.973267,330.030365 
	C361.957184,330.771149 361.457794,331.361816 360.958405,331.952454 
	C355.909576,333.650482 350.860748,335.348541 345.417450,337.046753 
	C346.487457,335.463440 347.951904,333.879974 350.115356,332.134369 
	C355.031281,331.704041 356.923004,329.346252 355.924591,325.353455 
	C354.685974,320.400085 353.802246,315.053375 351.226379,310.810852 
	C347.409973,304.525085 344.238098,298.529236 344.854065,290.851898 
	C345.133636,287.367645 344.169983,283.745880 339.128601,283.791168 
	C338.424133,283.797516 337.703705,282.029297 336.990631,281.082520 
	C340.064911,280.375610 343.139221,279.668671 346.702606,279.301697 
	C349.130371,284.082001 351.452087,288.402130 352.893646,292.998352 
	C354.183807,297.111847 354.381989,301.192505 357.044434,305.258179 
	C361.623779,312.251190 366.054108,319.946045 364.115204,329.158600 
z"/>
<path fill="#0175C9" opacity="1.000000" stroke="none" 
	d="
M336.641174,281.104126 
	C337.703705,282.029297 338.424133,283.797516 339.128601,283.791168 
	C344.169983,283.745880 345.133636,287.367645 344.854065,290.851898 
	C344.238098,298.529236 347.409973,304.525085 351.226379,310.810852 
	C353.802246,315.053375 354.685974,320.400085 355.924591,325.353455 
	C356.923004,329.346252 355.031281,331.704041 350.421204,331.989441 
	C348.511780,328.758728 346.922302,325.542664 345.494720,322.256226 
	C342.684875,315.787476 339.804626,309.340393 337.308197,302.749939 
	C336.585693,300.842651 336.799530,298.444611 337.056793,296.329010 
	C337.700714,291.033966 336.809570,286.670258 331.076599,284.243103 
	C332.751465,282.965637 334.521606,282.045654 336.641174,281.104126 
z"/>
<path fill="#046EC2" opacity="1.000000" stroke="none" 
	d="
M339.279999,339.832214 
	C339.812958,339.039215 340.702545,338.248840 341.820953,337.237610 
	C342.528564,337.033508 343.007355,337.050262 343.845703,337.114105 
	C342.682373,338.052399 341.159485,338.943634 339.279999,339.832214 
z"/>
<path fill="#02E9F5" opacity="1.000000" stroke="none" 
	d="
M236.060944,375.099304 
	C235.255325,375.458649 234.449722,375.817993 233.337769,376.317200 
	C232.282578,376.367035 231.533752,376.277069 230.313019,375.832153 
	C226.134033,373.414673 225.509232,373.874512 225.009460,379.033020 
	C215.519348,382.442932 206.037506,385.876129 196.532883,389.245087 
	C194.355804,390.016785 192.132477,390.721283 189.875244,391.192200 
	C181.304230,392.980286 179.886444,391.447052 182.255951,382.317322 
	C183.675949,382.175568 184.536392,382.267059 185.396820,382.358551 
	C185.500504,382.069611 185.604202,381.780640 185.707886,381.491699 
	C184.794968,381.002686 183.882065,380.513672 182.969147,380.024658 
	C182.983459,379.557098 182.997787,379.089508 183.379257,378.205688 
	C185.127441,375.148712 186.508484,372.508057 187.889526,369.867371 
	C187.889526,369.867371 187.926971,369.416046 188.324326,369.136475 
	C189.426041,367.500397 190.130417,366.143921 190.834778,364.787445 
	C190.867538,364.380066 190.900314,363.972717 191.328796,363.211426 
	C192.807785,361.256439 193.891068,359.655396 194.974365,358.054382 
	C194.974365,358.054382 194.993881,357.997742 195.346390,357.907562 
	C198.126129,352.888306 200.553345,347.959259 202.980560,343.030182 
	C202.980560,343.030182 202.981308,342.988098 203.376373,342.973328 
	C206.586655,339.936432 209.768616,337.163483 212.062485,333.787140 
	C213.209839,332.098328 212.736206,329.308258 212.995728,327.016266 
	C213.170593,326.465363 213.345444,325.914490 214.045074,325.112396 
	C215.046707,324.254089 215.523590,323.646942 216.381058,323.000549 
	C221.181152,321.620941 225.600662,320.280609 230.077652,319.333893 
	C231.449966,326.172058 232.394608,332.721405 234.180847,339.032562 
	C236.074753,345.724213 238.242676,352.444031 241.262573,358.681122 
	C244.191925,364.731232 244.103653,366.952454 238.626038,370.823242 
	C237.384003,371.700928 236.896011,373.645721 236.060944,375.099304 
z"/>
<path fill="#02B9EA" opacity="1.000000" stroke="none" 
	d="
M230.020172,318.940277 
	C225.600662,320.280609 221.181152,321.620941 216.198090,322.969666 
	C215.634537,322.978058 215.265152,322.941315 215.265152,322.941315 
	C215.212234,322.608185 215.159317,322.275055 215.109253,321.692383 
	C222.238342,318.801819 229.364563,316.160828 237.119904,313.260315 
	C239.172729,312.626770 240.596436,312.252808 242.248077,311.818573 
	C242.776978,311.612823 242.981506,311.381866 243.096252,311.096191 
	C243.102890,311.126892 243.161621,311.149231 243.543060,311.131653 
	C250.943176,308.714661 257.961853,306.315186 265.351562,303.897034 
	C269.148621,302.586243 272.574615,301.294098 276.361694,299.963104 
	C278.138885,299.648529 279.554993,299.372833 280.873779,299.422180 
	C278.181580,301.165985 275.586731,302.584808 272.596436,304.006836 
	C268.801178,305.670929 265.401337,307.331818 261.589935,308.994843 
	C258.119110,309.987000 255.059891,310.977020 251.613861,311.986572 
	C244.158112,314.317535 237.089142,316.628906 230.020172,318.940277 
z"/>
<path fill="#07D9EF" opacity="1.000000" stroke="none" 
	d="
M212.742065,327.228516 
	C212.736206,329.308258 213.209839,332.098328 212.062485,333.787140 
	C209.768616,337.163483 206.586655,339.936432 203.396835,342.968445 
	C206.177628,337.799133 209.333008,332.619934 212.742065,327.228516 
z"/>
<path fill="#07D9EF" opacity="1.000000" stroke="none" 
	d="
M202.720490,343.240845 
	C200.553345,347.959259 198.126129,352.888306 195.372498,357.892883 
	C197.517548,353.129395 199.988983,348.290436 202.720490,343.240845 
z"/>
<path fill="#07D9EF" opacity="1.000000" stroke="none" 
	d="
M187.567352,369.975708 
	C186.508484,372.508057 185.127441,375.148712 183.425461,377.857666 
	C184.484741,375.311981 185.864960,372.697998 187.567352,369.975708 
z"/>
<path fill="#07D9EF" opacity="1.000000" stroke="none" 
	d="
M225.314789,378.912872 
	C225.509232,373.874512 226.134033,373.414673 229.933228,375.834991 
	C228.556931,377.059418 227.088516,377.926056 225.314789,378.912872 
z"/>
<path fill="#07D9EF" opacity="1.000000" stroke="none" 
	d="
M194.681854,358.196533 
	C193.891068,359.655396 192.807785,361.256439 191.383362,362.909515 
	C192.157928,361.420563 193.273636,359.879608 194.681854,358.196533 
z"/>
<path fill="#07D9EF" opacity="1.000000" stroke="none" 
	d="
M190.532196,364.918060 
	C190.130417,366.143921 189.426041,367.500397 188.371552,368.915009 
	C188.757477,367.664978 189.493530,366.356842 190.532196,364.918060 
z"/>
<path fill="#07D9EF" opacity="1.000000" stroke="none" 
	d="
M182.762848,380.207001 
	C183.882065,380.513672 184.794968,381.002686 185.707886,381.491699 
	C185.604202,381.780640 185.500504,382.069611 185.396820,382.358551 
	C184.536392,382.267059 183.675949,382.175568 182.529999,382.018982 
	C182.348495,381.432404 182.452530,380.910858 182.762848,380.207001 
z"/>
<path fill="#07D9EF" opacity="1.000000" stroke="none" 
	d="
M214.999420,323.117615 
	C215.265152,322.941315 215.634537,322.978058 215.817505,323.008942 
	C215.523590,323.646942 215.046707,324.254089 214.262543,324.915039 
	C214.214752,324.410522 214.474228,323.852203 214.999420,323.117615 
z"/>
<path fill="#02B9EA" opacity="1.000000" stroke="none" 
	d="
M223.325989,118.755539 
	C223.773026,118.354935 224.129684,118.296326 224.730103,118.599098 
	C222.769104,123.698456 220.489838,128.404144 218.413757,133.197845 
	C217.915253,134.348923 218.091614,135.792252 217.957611,137.101181 
	C219.319382,137.114670 220.963577,137.633987 221.995956,137.057541 
	C227.649628,133.900772 233.065994,130.317612 238.730438,127.181816 
	C245.795868,123.270432 253.023239,119.651558 260.180695,115.906403 
	C262.666412,119.484833 265.152130,123.063263 267.959900,126.803085 
	C268.281921,126.964485 268.148804,127.441772 267.937897,128.044296 
	C267.096497,131.857941 266.336823,134.799469 261.897186,134.159927 
	C260.943970,134.022629 259.751526,134.917633 258.794891,135.532486 
	C251.761139,140.053329 242.888748,141.506485 237.348846,148.621490 
	C236.386215,149.857819 234.074768,150.083099 232.354172,150.683151 
	C225.667130,153.015198 218.271469,154.132126 215.089523,162.014389 
	C214.658569,163.081924 212.334885,163.385391 210.887604,164.042648 
	C204.155853,156.615463 203.949249,154.387894 208.647324,145.930878 
	C213.591171,137.031464 218.379410,128.045624 223.325989,118.755539 
z"/>
<path fill="#02ABE5" opacity="1.000000" stroke="none" 
	d="
M210.965424,164.386597 
	C212.334885,163.385391 214.658569,163.081924 215.089523,162.014389 
	C218.271469,154.132126 225.667130,153.015198 232.354172,150.683151 
	C234.074768,150.083099 236.386215,149.857819 237.348846,148.621490 
	C242.888748,141.506485 251.761139,140.053329 258.794891,135.532486 
	C259.751526,134.917633 260.943970,134.022629 261.897186,134.159927 
	C266.336823,134.799469 267.096497,131.857941 267.896820,128.288620 
	C271.040863,133.038834 274.015045,138.147247 276.636353,143.622528 
	C275.787537,144.019653 275.239868,143.922119 274.803253,144.098831 
	C264.218353,148.382843 253.643661,152.692078 243.075912,157.018234 
	C242.631607,157.200119 242.132233,157.503387 241.893860,157.893799 
	C238.630432,163.238861 232.810394,164.043869 227.662521,166.136856 
	C225.813995,166.888428 224.300232,168.488220 222.671707,169.749954 
	C220.462418,171.461624 218.289688,173.220459 216.101288,174.959076 
	C214.415268,171.549561 212.729248,168.140045 210.965424,164.386597 
z"/>
<path fill="#019EE4" opacity="1.000000" stroke="none" 
	d="
M216.229675,175.261139 
	C218.289688,173.220459 220.462418,171.461624 222.671707,169.749954 
	C224.300232,168.488220 225.813995,166.888428 227.662521,166.136856 
	C232.810394,164.043869 238.630432,163.238861 241.893860,157.893799 
	C242.132233,157.503387 242.631607,157.200119 243.075912,157.018234 
	C253.643661,152.692078 264.218353,148.382843 274.803253,144.098831 
	C275.239868,143.922119 275.787537,144.019653 276.706177,143.975769 
	C277.404266,144.098953 277.635223,144.289642 277.866577,145.095764 
	C276.876526,148.106140 276.018860,150.653702 274.732971,152.962753 
	C274.074890,154.144409 272.779541,155.142258 271.546265,155.798462 
	C268.560791,157.386993 265.238220,158.411087 262.424133,160.236954 
	C257.717773,163.290527 253.589798,167.286331 247.447968,167.457169 
	C246.077393,167.495270 244.309509,168.227020 243.449677,169.249313 
	C237.278854,176.585785 228.100815,177.141006 219.939575,179.983932 
	C218.745743,178.510361 217.551926,177.036789 216.229675,175.261139 
z"/>
<path fill="#046EC2" opacity="1.000000" stroke="none" 
	d="
M240.440826,218.896774 
	C239.329498,217.277252 238.528824,215.685074 237.389191,213.968796 
	C235.647430,210.801941 234.244614,207.759201 233.124039,204.348328 
	C233.605774,203.982330 233.805267,203.984467 234.171143,204.287354 
	C237.944962,210.378845 237.911469,210.334702 243.668640,205.967194 
	C245.109253,204.874313 246.805069,204.091492 248.444794,203.291656 
	C259.759003,197.772903 271.097565,192.303955 282.402435,186.766220 
	C283.568726,186.194931 284.618439,185.341599 285.629883,184.507202 
	C288.010376,182.543427 290.293213,180.460083 292.695831,178.524765 
	C294.520386,177.055115 295.764984,175.692001 292.970032,173.612106 
	C292.621063,171.468628 292.285492,169.708557 291.949921,167.948471 
	C293.976257,171.082870 296.002563,174.217255 298.137268,177.706879 
	C297.928833,178.791183 297.612091,179.520248 296.995728,180.842300 
	C293.090515,187.931458 289.484924,194.427628 285.639954,201.049545 
	C284.940125,201.461624 284.479645,201.747955 284.024841,201.643921 
	C284.217194,199.707108 284.403900,198.160660 284.635864,196.239059 
	C275.521332,195.386810 269.146790,200.923721 262.429871,204.485504 
	C255.108292,208.367920 248.766876,214.098755 241.998169,219.023773 
	C241.582611,218.990570 241.167053,218.957352 240.440826,218.896774 
z"/>
<path fill="#0280D1" opacity="1.000000" stroke="none" 
	d="
M234.004761,203.986588 
	C233.805267,203.984467 233.605774,203.982330 233.105194,203.970261 
	C231.792603,201.909073 230.781082,199.857834 230.107605,197.356476 
	C236.029114,192.343933 241.024612,186.813431 249.002747,186.336823 
	C250.135208,186.269165 251.186295,184.935898 252.286148,184.205124 
	C254.468933,182.754807 256.521149,181.019409 258.870758,179.924118 
	C268.909851,175.244370 276.993164,166.860306 288.218414,164.445114 
	C288.525513,164.379059 288.789551,164.112869 289.073669,163.940002 
	C289.886078,165.134460 290.698456,166.328918 291.730408,167.735931 
	C292.285492,169.708557 292.621063,171.468628 292.581848,173.629074 
	C287.631439,175.366241 282.671570,175.982224 278.553589,178.177475 
	C267.035797,184.317490 255.857986,191.096497 244.563889,197.654144 
	C241.015015,199.714722 237.522873,201.873016 234.004761,203.986588 
z"/>
<path fill="#018CDB" opacity="1.000000" stroke="none" 
	d="
M289.054260,163.580719 
	C288.789551,164.112869 288.525513,164.379059 288.218414,164.445114 
	C276.993164,166.860306 268.909851,175.244370 258.870758,179.924118 
	C256.521149,181.019409 254.468933,182.754807 252.286148,184.205124 
	C251.186295,184.935898 250.135208,186.269165 249.002747,186.336823 
	C241.024612,186.813431 236.029114,192.343933 230.088257,196.985504 
	C228.155487,194.944458 226.580109,192.824295 225.312866,190.306091 
	C234.365128,187.007187 239.506134,177.491150 249.510071,176.877258 
	C249.769257,176.861374 249.983261,176.425873 250.254303,176.237946 
	C253.513474,173.978058 256.878174,171.856964 260.023865,169.449463 
	C267.405396,163.800140 277.824890,162.674500 283.107452,153.923309 
	C285.083252,157.022675 287.059082,160.122040 289.054260,163.580719 
z"/>
<path fill="#0393DE" opacity="1.000000" stroke="none" 
	d="
M283.036987,153.576645 
	C277.824890,162.674500 267.405396,163.800140 260.023865,169.449463 
	C256.878174,171.856964 253.513474,173.978058 250.254303,176.237946 
	C249.983261,176.425873 249.769257,176.861374 249.510071,176.877258 
	C239.506134,177.491150 234.365128,187.007187 225.251831,189.965317 
	C223.271530,186.915985 221.660355,183.809387 219.994385,180.343353 
	C228.100815,177.141006 237.278854,176.585785 243.449677,169.249313 
	C244.309509,168.227020 246.077393,167.495270 247.447968,167.457169 
	C253.589798,167.286331 257.717773,163.290527 262.424133,160.236954 
	C265.238220,158.411087 268.560791,157.386993 271.546265,155.798462 
	C272.779541,155.142258 274.074890,154.144409 274.732971,152.962753 
	C276.018860,150.653702 276.876526,148.106140 277.981018,145.291733 
	C279.689209,147.694077 281.327850,150.462021 283.036987,153.576645 
z"/>
<path fill="#03B2E7" opacity="1.000000" stroke="none" 
	d="
M308.966431,258.539307 
	C308.509827,258.952301 308.085846,258.996582 307.096863,258.805756 
	C296.297516,253.356323 286.002502,248.255524 275.875641,242.840164 
	C273.615631,241.631607 271.755432,239.479996 270.053802,237.472198 
	C267.958496,234.999878 268.189972,232.503006 270.580841,230.063278 
	C271.169769,229.462341 270.730713,227.854019 270.816467,226.352692 
	C272.563599,222.621948 274.258453,219.247284 276.190155,215.731659 
	C276.961029,215.095657 277.495026,214.600647 278.026764,214.508453 
	C277.842255,216.392471 277.404724,217.895020 277.526398,219.350861 
	C277.869659,223.458755 277.133270,227.769394 283.614136,228.697113 
	C287.621307,229.270706 291.988403,231.784149 294.885193,234.718674 
	C300.642395,240.550827 308.330017,242.322998 315.073425,246.028793 
	C313.048615,250.076050 311.023804,254.123306 308.966431,258.539307 
z"/>
<path fill="#01BEEA" opacity="1.000000" stroke="none" 
	d="
M315.323425,245.805542 
	C308.330017,242.322998 300.642395,240.550827 294.885193,234.718674 
	C291.988403,231.784149 287.621307,229.270706 283.614136,228.697113 
	C277.133270,227.769394 277.869659,223.458755 277.526398,219.350861 
	C277.404724,217.895020 277.842255,216.392471 278.103943,214.274811 
	C278.322876,213.333801 278.530151,213.085938 279.130920,212.875519 
	C280.307373,212.235764 281.158020,211.615250 282.379059,211.009613 
	C286.924896,213.309540 291.203033,215.427292 295.254669,217.914093 
	C303.948914,223.250397 312.526245,228.777100 321.151459,234.225845 
	C319.292114,238.011337 317.432739,241.796814 315.323425,245.805542 
z"/>
<path fill="#04CDED" opacity="1.000000" stroke="none" 
	d="
M321.468872,234.097137 
	C312.526245,228.777100 303.948914,223.250397 295.254669,217.914093 
	C291.203033,215.427292 286.924896,213.309540 282.380737,210.681915 
	C282.023987,209.902863 282.035889,209.466385 282.386597,208.960510 
	C284.146759,206.605713 285.568115,204.320328 287.358948,202.039520 
	C290.149963,203.322830 293.086517,206.183838 294.899872,205.593674 
	C301.194794,203.545013 304.270020,207.380951 307.523560,211.098312 
	C310.762054,214.798462 314.296143,216.890182 319.269714,214.901306 
	C321.622803,218.163574 325.206665,221.179718 325.924408,224.768997 
	C326.461029,227.452332 323.300507,230.874985 321.468872,234.097137 
z"/>
<path fill="#07D9EF" opacity="1.000000" stroke="none" 
	d="
M319.160706,214.552979 
	C314.296143,216.890182 310.762054,214.798462 307.523560,211.098312 
	C304.270020,207.380951 301.194794,203.545013 294.899872,205.593674 
	C293.086517,206.183838 290.149963,203.322830 287.146301,201.884109 
	C286.335907,201.457336 286.107605,201.190567 285.879303,200.923798 
	C289.484924,194.427628 293.090515,187.931458 296.864197,181.109070 
	C298.851379,182.231003 301.268494,183.320312 302.389038,185.187637 
	C308.127075,194.749680 313.530975,204.512207 319.160706,214.552979 
z"/>
<path fill="#02C9EC" opacity="1.000000" stroke="none" 
	d="
M260.095764,115.559608 
	C253.023239,119.651558 245.795868,123.270432 238.730438,127.181816 
	C233.065994,130.317612 227.649628,133.900772 221.995956,137.057541 
	C220.963577,137.633987 219.319382,137.114670 217.957611,137.101181 
	C218.091614,135.792252 217.915253,134.348923 218.413757,133.197845 
	C220.489838,128.404144 222.769104,123.698456 225.004639,118.604172 
	C225.573944,117.642998 226.112442,117.038124 227.055634,115.975197 
	C227.637161,114.726463 227.814026,113.935783 227.990891,113.145111 
	C228.470322,112.817207 228.949738,112.489304 229.834167,112.344879 
	C230.733154,113.488327 231.227142,114.448288 232.429642,116.785110 
	C232.587723,110.745758 236.218063,110.212822 239.623459,108.958664 
	C243.037689,107.701271 246.121872,105.568733 249.416763,103.954620 
	C250.539795,103.404457 251.863419,103.263779 253.095398,102.936005 
	C255.400558,107.028275 257.705719,111.120544 260.095764,115.559608 
z"/>
<path fill="#07D9EF" opacity="1.000000" stroke="none" 
	d="
M253.065491,102.569031 
	C251.863419,103.263779 250.539795,103.404457 249.416763,103.954620 
	C246.121872,105.568733 243.037689,107.701271 239.623459,108.958664 
	C236.218063,110.212822 232.587723,110.745758 232.429642,116.785110 
	C231.227142,114.448288 230.733154,113.488327 230.093002,112.213028 
	C233.947021,104.480217 237.872025,97.019302 242.084564,89.724457 
	C242.436493,89.115013 245.577286,89.078957 245.976776,89.702560 
	C248.553894,93.725456 250.728760,98.006027 253.065491,102.569031 
z"/>
<path fill="#02B9EA" opacity="1.000000" stroke="none" 
	d="
M227.712769,113.146141 
	C227.814026,113.935783 227.637161,114.726463 227.242004,115.735352 
	C226.750961,115.271935 226.478256,114.590317 226.277115,113.629257 
	C226.710678,113.282272 227.072678,113.214722 227.712769,113.146141 
z"/>
<path fill="#025FB7" opacity="1.000000" stroke="none" 
	d="
M364.518738,329.133545 
	C366.054108,319.946045 361.623779,312.251190 357.044434,305.258179 
	C354.381989,301.192505 354.183807,297.111847 352.893646,292.998352 
	C351.452087,288.402130 349.130371,284.082001 347.100128,279.288910 
	C352.461700,275.531006 355.460449,276.322815 359.766357,282.860840 
	C360.099609,283.913879 360.545013,284.440460 360.990448,284.967041 
	C361.310760,285.438202 361.631073,285.909332 362.011963,286.664917 
	C364.168182,292.486359 366.266937,298.022125 368.357788,303.560852 
	C369.167694,305.706390 369.906372,307.880402 370.772888,310.002472 
	C371.989777,312.982666 373.068085,316.053070 374.624878,318.851715 
	C376.316559,321.892822 376.801727,323.967896 372.639069,325.187744 
	C371.281952,325.585449 370.285645,327.214539 369.058624,328.631592 
	C367.636047,329.024689 366.279144,329.066589 364.518738,329.133545 
z"/>
<path fill="#0250AE" opacity="1.000000" stroke="none" 
	d="
M360.952515,284.686493 
	C360.545013,284.440460 360.099609,283.913879 359.835510,283.203888 
	C360.316101,283.482300 360.615356,283.944122 360.952515,284.686493 
z"/>
<path fill="#025FB7" opacity="1.000000" stroke="none" 
	d="
M264.980530,303.915741 
	C257.961853,306.315186 250.943176,308.714661 243.515167,310.763916 
	C244.239319,308.988098 245.372818,307.562469 246.510956,306.130981 
	C244.194489,302.455261 238.777496,299.753448 230.098877,297.958160 
	C230.357376,297.059021 230.615875,296.159882 231.157349,295.012451 
	C232.971939,292.373596 234.408569,289.913879 236.076767,287.622772 
	C236.866440,286.538208 238.098999,285.776154 239.767807,285.115479 
	C248.683975,288.654541 258.645020,288.651794 263.544373,298.499542 
	C264.519073,300.458649 265.649200,301.754395 264.980530,303.915741 
z"/>
<path fill="#0250AE" opacity="1.000000" stroke="none" 
	d="
M230.061859,298.354431 
	C238.777496,299.753448 244.194489,302.455261 246.510956,306.130981 
	C245.372818,307.562469 244.239319,308.988098 243.133728,310.781494 
	C243.161621,311.149231 243.102890,311.126892 242.883698,311.183716 
	C242.394852,311.397888 242.180069,311.610657 242.020142,311.878815 
	C240.596436,312.252808 239.172729,312.626770 237.381195,313.017029 
	C236.773239,312.803253 236.568726,312.509491 236.287781,312.352539 
	C228.130737,307.794891 228.129517,307.797089 230.061859,298.354431 
z"/>
<path fill="#019EE4" opacity="1.000000" stroke="none" 
	d="
M270.764221,226.708786 
	C270.730713,227.854019 271.169769,229.462341 270.580841,230.063278 
	C268.189972,232.503006 267.958496,234.999878 270.053802,237.472198 
	C271.755432,239.479996 273.615631,241.631607 275.875641,242.840164 
	C286.002502,248.255524 296.297516,253.356323 306.777100,258.821106 
	C307.022339,259.071594 306.994354,259.544861 306.780701,259.905029 
	C306.337372,260.459137 306.146698,260.685944 305.995117,260.945557 
	C303.840424,264.495911 301.685730,268.046295 299.049683,271.626953 
	C295.755798,271.119446 292.632111,271.187042 290.188721,269.931183 
	C282.630524,266.046356 275.571320,261.127930 267.855774,257.631836 
	C261.688660,254.837357 256.769165,252.486984 260.903015,244.651047 
	C261.031647,244.407166 260.857117,244.003326 260.823944,243.674057 
	C260.863678,243.299606 260.903381,242.925140 261.350861,242.190964 
	C263.160217,239.211243 264.561829,236.591248 266.092072,233.651962 
	C267.735168,231.124710 269.249695,228.916748 270.764221,226.708786 
z"/>
<path fill="#0393DE" opacity="1.000000" stroke="none" 
	d="
M260.558472,243.882370 
	C260.857117,244.003326 261.031647,244.407166 260.903015,244.651047 
	C256.769165,252.486984 261.688660,254.837357 267.855774,257.631836 
	C275.571320,261.127930 282.630524,266.046356 290.188721,269.931183 
	C292.632111,271.187042 295.755798,271.119446 298.822754,271.881012 
	C296.914856,276.280273 294.752472,280.455750 292.122864,284.507141 
	C282.158386,278.133545 272.674622,271.863220 263.138550,265.673431 
	C262.362946,265.169983 261.238251,265.095825 260.261597,265.028992 
	C255.596146,264.709778 253.737015,262.377441 254.902145,257.778564 
	C254.902145,257.778564 254.872726,257.409943 255.034729,257.118744 
	C255.248825,256.724182 255.371063,256.585480 255.340073,256.524017 
	C255.240540,256.326538 255.084396,256.157623 254.950089,255.977707 
	C255.636276,253.930145 256.322449,251.882568 257.005310,249.465668 
	C258.098999,247.427780 259.195984,245.759232 260.558472,243.882370 
z"/>
<path fill="#025FB7" opacity="1.000000" stroke="none" 
	d="
M278.805176,212.894760 
	C278.530151,213.085938 278.322876,213.333801 278.106201,213.871994 
	C277.495026,214.600647 276.961029,215.095657 276.129211,215.398483 
	C272.443848,210.583588 270.360260,211.016663 265.639252,213.572113 
	C259.132629,217.094131 251.899689,219.274338 244.977875,222.029312 
	C244.018127,221.246796 243.058395,220.464279 242.048416,219.352768 
	C248.766876,214.098755 255.108292,208.367920 262.429871,204.485504 
	C269.146790,200.923721 275.521332,195.386810 284.635864,196.239059 
	C284.403900,198.160660 284.217194,199.707108 283.953094,201.981262 
	C282.885162,204.794189 281.894623,206.879410 280.624725,209.143372 
	C279.831940,210.512985 279.318542,211.703873 278.805176,212.894760 
z"/>
<path fill="#0250AE" opacity="1.000000" stroke="none" 
	d="
M244.993011,222.399582 
	C251.899689,219.274338 259.132629,217.094131 265.639252,213.572113 
	C270.360260,211.016663 272.443848,210.583588 275.892395,215.539459 
	C274.258453,219.247284 272.563599,222.621948 270.816467,226.352692 
	C269.249695,228.916748 267.735168,231.124710 265.845703,233.656647 
	C265.470764,233.980621 264.979279,233.936874 264.979279,233.936874 
	C264.693939,229.571350 263.049072,229.614594 260.191406,232.289154 
	C254.218414,237.879486 252.475815,237.540558 248.627075,230.232956 
	C247.339417,227.788086 246.209915,225.259933 244.993011,222.399582 
z"/>
<path fill="#0393DE" opacity="1.000000" stroke="none" 
	d="
M264.738373,234.177948 
	C264.979279,233.936874 265.470764,233.980621 265.717102,233.975937 
	C264.561829,236.591248 263.160217,239.211243 261.438232,241.921265 
	C262.244385,239.480530 263.370941,236.949768 264.738373,234.177948 
z"/>
<path fill="#019EE4" opacity="1.000000" stroke="none" 
	d="
M311.502136,291.844940 
	C317.064392,305.256470 322.480682,318.621674 327.182983,332.233521 
	C328.176361,335.108948 326.555756,338.887390 325.863220,342.802673 
	C325.347565,343.844574 325.108246,344.333496 324.868958,344.822449 
	C324.497955,344.922974 324.126953,345.023468 323.170319,345.154175 
	C321.977142,345.629578 321.369568,346.074829 320.761993,346.520081 
	C319.463013,346.768982 318.164032,347.017883 316.379730,346.899292 
	C314.672607,344.591370 313.106079,342.783478 312.298615,340.683655 
	C310.448334,335.871918 308.941193,330.926544 307.349426,326.017700 
	C306.502228,323.404999 305.389313,320.802246 305.057159,318.113373 
	C304.162689,310.872864 304.677185,303.339264 300.272156,296.850281 
	C301.004333,295.740631 301.457031,294.800140 301.909729,293.859650 
	C304.973755,293.201904 308.037750,292.544189 311.502136,291.844940 
z"/>
<path fill="#02ABE5" opacity="1.000000" stroke="none" 
	d="
M299.992676,297.019379 
	C304.677185,303.339264 304.162689,310.872864 305.057159,318.113373 
	C305.389313,320.802246 306.502228,323.404999 307.349426,326.017700 
	C308.941193,330.926544 310.448334,335.871918 312.298615,340.683655 
	C313.106079,342.783478 314.672607,344.591370 315.981689,346.888885 
	C316.068939,347.245911 315.646454,347.382935 315.429199,347.431458 
	C315.015350,347.400208 314.818817,347.320435 314.214233,347.009430 
	C313.535522,346.875000 313.264862,346.971802 312.994202,347.068604 
	C310.261261,347.508484 307.528351,347.948334 304.421967,347.919678 
	C302.072906,341.047943 300.137482,334.631866 298.107452,328.245911 
	C296.769958,324.038544 295.380920,319.842651 293.828705,315.711578 
	C293.398895,314.567719 292.397675,313.578583 291.494324,312.684418 
	C289.182770,310.396454 288.011108,308.021179 291.024353,305.527496 
	C293.409698,303.553406 292.401703,301.830139 291.154602,299.713257 
	C291.878174,298.298920 292.445953,297.167633 293.013763,296.036346 
	C294.074677,296.014679 295.135590,295.992981 296.825867,296.207001 
	C298.301056,296.634918 299.146881,296.827148 299.992676,297.019379 
z"/>
<path fill="#0280D1" opacity="1.000000" stroke="none" 
	d="
M280.971100,299.097168 
	C279.554993,299.372833 278.138885,299.648529 276.407043,299.622528 
	C276.126862,298.210327 276.626678,296.442291 276.127167,296.089630 
	C270.229706,291.925964 264.278015,287.820312 258.142578,284.018951 
	C253.876984,281.376099 249.304886,279.227997 244.869751,276.858826 
	C246.047653,273.698578 247.225555,270.538300 248.917419,267.370239 
	C251.571869,269.065186 253.578415,270.982666 255.884140,272.420319 
	C259.371368,274.594574 263.423492,275.985779 266.600250,278.509491 
	C273.321991,283.849548 280.487335,287.899750 289.104919,289.022797 
	C288.738495,291.069244 288.372070,293.115723 287.691895,295.713928 
	C286.221558,297.148041 285.064972,298.030457 283.542786,298.928040 
	C282.441803,298.994537 281.706451,299.045837 280.971100,299.097168 
z"/>
<path fill="#018CDB" opacity="1.000000" stroke="none" 
	d="
M289.371338,288.857483 
	C280.487335,287.899750 273.321991,283.849548 266.600250,278.509491 
	C263.423492,275.985779 259.371368,274.594574 255.884140,272.420319 
	C253.578415,270.982666 251.571869,269.065186 249.166458,267.131531 
	C250.688660,263.946198 252.475784,260.991821 254.582520,257.908020 
	C253.737015,262.377441 255.596146,264.709778 260.261597,265.028992 
	C261.238251,265.095825 262.362946,265.169983 263.138550,265.673431 
	C272.674622,271.863220 282.158386,278.133545 291.825043,284.671661 
	C291.208832,286.204224 290.423279,287.448181 289.371338,288.857483 
z"/>
<path fill="#0FA5D9" opacity="1.000000" stroke="none" 
	d="
M283.908386,298.912842 
	C285.064972,298.030457 286.221558,297.148041 287.676239,296.111328 
	C289.374512,295.968506 290.774719,295.979980 292.594330,296.013916 
	C292.445953,297.167633 291.878174,298.298920 290.751160,299.714264 
	C288.097443,299.636505 286.002899,299.274689 283.908386,298.912842 
z"/>
<path fill="#0FA5D9" opacity="1.000000" stroke="none" 
	d="
M300.272156,296.850281 
	C299.146881,296.827148 298.301056,296.634918 297.223846,296.207092 
	C298.402435,295.291718 299.812439,294.611908 301.566071,293.895874 
	C301.457031,294.800140 301.004333,295.740631 300.272156,296.850281 
z"/>
<path fill="#03B2E7" opacity="1.000000" stroke="none" 
	d="
M306.193695,260.836639 
	C306.146698,260.685944 306.337372,260.459137 306.750824,260.140198 
	C306.820770,260.303680 306.640015,260.541199 306.193695,260.836639 
z"/>
<path fill="#046EC2" opacity="1.000000" stroke="none" 
	d="
M244.529160,276.946472 
	C249.304886,279.227997 253.876984,281.376099 258.142578,284.018951 
	C264.278015,287.820312 270.229706,291.925964 276.127167,296.089630 
	C276.626678,296.442291 276.126862,298.210327 276.045959,299.661407 
	C272.574615,301.294098 269.148621,302.586243 265.351562,303.897034 
	C265.649200,301.754395 264.519073,300.458649 263.544373,298.499542 
	C258.645020,288.651794 248.683975,288.654541 240.127594,285.080078 
	C241.296524,282.209473 242.742554,279.621765 244.529160,276.946472 
z"/>
<path fill="#018CDB" opacity="1.000000" stroke="none" 
	d="
M254.934219,256.243713 
	C255.084396,256.157623 255.240540,256.326538 255.340073,256.524017 
	C255.371063,256.585480 255.248825,256.724182 255.056122,256.935059 
	C254.916443,256.864960 254.917389,256.687347 254.934219,256.243713 
z"/>
<path fill="#07D9EF" opacity="1.000000" stroke="none" 
	d="
M230.077652,319.333893 
	C237.089142,316.628906 244.158112,314.317535 251.764069,312.332886 
	C254.519165,319.565125 257.693573,326.343140 258.637390,333.418671 
	C259.329010,338.603516 260.834473,342.816620 263.568604,347.057861 
	C266.611908,351.778656 271.091156,356.596924 265.405762,362.524841 
	C264.938324,363.012238 265.111115,364.113647 264.986450,364.929749 
	C259.509064,367.050232 254.064606,369.261780 248.542969,371.260040 
	C244.688095,372.655121 240.727524,373.758148 236.437546,375.045471 
	C236.896011,373.645721 237.384003,371.700928 238.626038,370.823242 
	C244.103653,366.952454 244.191925,364.731232 241.262573,358.681122 
	C238.242676,352.444031 236.074753,345.724213 234.180847,339.032562 
	C232.394608,332.721405 231.449966,326.172058 230.077652,319.333893 
z"/>
<path fill="#02C9EC" opacity="1.000000" stroke="none" 
	d="
M265.321167,364.817169 
	C265.111115,364.113647 264.938324,363.012238 265.405762,362.524841 
	C271.091156,356.596924 266.611908,351.778656 263.568604,347.057861 
	C260.834473,342.816620 259.329010,338.603516 258.637390,333.418671 
	C257.693573,326.343140 254.519165,319.565125 252.150848,312.313293 
	C255.059891,310.977020 258.119110,309.987000 261.844849,309.238342 
	C263.946655,310.738342 266.216431,311.751526 266.671509,313.298492 
	C268.557343,319.708923 270.260101,326.222168 271.314728,332.812134 
	C272.119629,337.841858 273.536438,342.253204 276.722382,346.340393 
	C279.313965,349.665131 281.059418,353.649384 283.180084,357.341187 
	C282.885345,357.776184 282.590637,358.211182 282.183136,358.885010 
	C276.598877,360.984070 271.127411,362.844330 265.321167,364.817169 
z"/>
<path fill="#01BEEA" opacity="1.000000" stroke="none" 
	d="
M283.543091,357.271118 
	C281.059418,353.649384 279.313965,349.665131 276.722382,346.340393 
	C273.536438,342.253204 272.119629,337.841858 271.314728,332.812134 
	C270.260101,326.222168 268.557343,319.708923 266.671509,313.298492 
	C266.216431,311.751526 263.946655,310.738342 262.256470,309.236206 
	C265.401337,307.331818 268.801178,305.670929 272.821472,304.258545 
	C275.257874,307.135864 277.273987,309.652069 278.834167,312.424805 
	C280.437286,315.273804 281.591553,318.375000 282.948883,321.362793 
	C284.164978,324.039795 286.474518,326.750092 286.383789,329.379517 
	C286.199585,334.717743 287.235138,339.245453 290.504211,343.452332 
	C291.151215,344.284943 290.669434,345.990295 290.718628,347.292816 
	C290.815918,349.870422 290.920471,352.447754 291.022034,355.025177 
	C288.650085,355.750458 286.278076,356.475769 283.543091,357.271118 
z"/>
<path fill="#03B2E7" opacity="1.000000" stroke="none" 
	d="
M291.357483,354.893982 
	C290.920471,352.447754 290.815918,349.870422 290.718628,347.292816 
	C290.669434,345.990295 291.151215,344.284943 290.504211,343.452332 
	C287.235138,339.245453 286.199585,334.717743 286.383789,329.379517 
	C286.474518,326.750092 284.164978,324.039795 282.948883,321.362793 
	C281.591553,318.375000 280.437286,315.273804 278.834167,312.424805 
	C277.273987,309.652069 275.257874,307.135864 273.216919,304.255310 
	C275.586731,302.584808 278.181580,301.165985 280.873779,299.422180 
	C281.706451,299.045837 282.441803,298.994537 283.542786,298.928040 
	C286.002899,299.274689 288.097443,299.636505 290.595398,299.997314 
	C292.401703,301.830139 293.409698,303.553406 291.024353,305.527496 
	C288.011108,308.021179 289.182770,310.396454 291.494324,312.684418 
	C292.397675,313.578583 293.398895,314.567719 293.828705,315.711578 
	C295.380920,319.842651 296.769958,324.038544 298.107452,328.245911 
	C300.137482,334.631866 302.072906,341.047943 304.084351,347.874481 
	C299.977753,350.452759 295.835327,352.607758 291.357483,354.893982 
z"/>
<path fill="#019EE4" opacity="1.000000" stroke="none" 
	d="
M313.249451,347.072388 
	C313.264862,346.971802 313.535522,346.875000 313.910461,346.914642 
	C313.844727,347.059448 313.674744,347.067810 313.249451,347.072388 
z"/>
<path fill="#046EC2" opacity="1.000000" stroke="none" 
	d="
M325.249451,344.828735 
	C325.108246,344.333496 325.347565,343.844574 325.805542,343.182983 
	C329.530884,341.892273 333.037476,340.774170 336.779419,339.868439 
	C333.219788,341.665527 329.424866,343.250244 325.249451,344.828735 
z"/>
<path fill="#046EC2" opacity="1.000000" stroke="none" 
	d="
M321.069061,346.589905 
	C321.369568,346.074829 321.977142,345.629578 322.889587,345.219727 
	C322.588348,345.723297 321.982239,346.191528 321.069061,346.589905 
z"/>
<path fill="#0250AE" opacity="1.000000" stroke="none" 
	d="
M361.263763,331.908875 
	C361.457794,331.361816 361.957184,330.771149 362.770569,330.159058 
	C362.579437,330.713501 362.074280,331.289429 361.263763,331.908875 
z"/>
<path fill="#025FB7" opacity="1.000000" stroke="none" 
	d="
M242.248077,311.818573 
	C242.180069,311.610657 242.394852,311.397888 242.877060,311.153015 
	C242.981506,311.381866 242.776978,311.612823 242.248077,311.818573 
z"/>
<path fill="#0175C9" opacity="1.000000" stroke="none" 
	d="
M234.171143,204.287354 
	C237.522873,201.873016 241.015015,199.714722 244.563889,197.654144 
	C255.857986,191.096497 267.035797,184.317490 278.553589,178.177475 
	C282.671570,175.982224 287.631439,175.366241 292.595215,174.012466 
	C295.764984,175.692001 294.520386,177.055115 292.695831,178.524765 
	C290.293213,180.460083 288.010376,182.543427 285.629883,184.507202 
	C284.618439,185.341599 283.568726,186.194931 282.402435,186.766220 
	C271.097565,192.303955 259.759003,197.772903 248.444794,203.291656 
	C246.805069,204.091492 245.109253,204.874313 243.668640,205.967194 
	C237.911469,210.334702 237.944962,210.378845 234.171143,204.287354 
z"/>
<path fill="#01BEEA" opacity="1.000000" stroke="none" 
	d="
M280.904114,208.964630 
	C281.894623,206.879410 282.885162,204.794189 283.947418,202.371628 
	C284.479645,201.747955 284.940125,201.461624 285.639954,201.049545 
	C286.107605,201.190567 286.335907,201.457336 286.776855,201.879517 
	C285.568115,204.320328 284.146759,206.605713 282.100525,208.941818 
	C281.285126,208.983231 281.094635,208.973923 280.904114,208.964630 
z"/>
<path fill="#03B2E7" opacity="1.000000" stroke="none" 
	d="
M280.624725,209.143372 
	C281.094635,208.973923 281.285126,208.983231 281.761719,209.011230 
	C282.035889,209.466385 282.023987,209.902863 282.010376,210.667038 
	C281.158020,211.615250 280.307373,212.235764 279.130920,212.875519 
	C279.318542,211.703873 279.831940,210.512985 280.624725,209.143372 
z"/>
</svg>